<svg id="OBJECTS" xmlns="http://www.w3.org/2000/svg" viewBox="0 0 377.77 408.61"><defs><style>.cls-1{fill:#6db06d;}</style></defs><title>logo</title><path class="cls-1" d="M209.18,302l0,0,0,0Z" transform="translate(-62.44 -55.93)"/><path class="cls-1" d="M221.47,348.78a.61.61,0,0,0-.05-.12l0,.06Z" transform="translate(-62.44 -55.93)"/><path class="cls-1" d="M137,442c2.46,0,4.92.08,7.37,0a47.05,47.05,0,0,0,6.91-.71c1.18-.22,2.35-.5,3.53-.73s2.31-.41,3.47-.57,2.51-.3,3.77-.43l4-.42c1.39-.12,2.78-.26,4.15-.45a34,34,0,0,0,3.75-.73,44.32,44.32,0,0,0,7.4-2.63,73.44,73.44,0,0,0,6.79-3.6c2-1.19,4.06-2.44,6.1-3.64,1.81-1.06,3.61-2.14,5.38-3.26s3.66-2.35,5.43-3.6a48.94,48.94,0,0,0,5-4.11,29.78,29.78,0,0,0,5.34-6.45.28.28,0,0,0-.25-.42.26.26,0,0,0-.23.14,21.85,21.85,0,0,1-1.3,1.89,29,29,0,0,1-5.1,5q-1.24,1-2.55,1.83c-.9.61-1.8,1.21-2.72,1.78-1.84,1.15-3.73,2.19-5.65,3.2s-3.65,1.93-5.47,2.92c-2.19,1.18-4.38,2.38-6.63,3.47-1.79.86-3.62,1.67-5.45,2.45a67.49,67.49,0,0,1-7.06,2.55,62.47,62.47,0,0,1-7.66,1.63c-1.31.22-2.63.41-3.94.64s-2.59.48-3.89.76-2.63.62-3.92,1c-.63.18-1.26.37-1.9.53s-1.36.32-2,.45-1.2.21-1.8.29a80,80,0,0,1-10.95.47c-2.15,0-4.3,0-6.45.09a.31.31,0,0,0-.31.31.32.32,0,0,0,.31.32C132.57,441.88,134.78,441.92,137,442Z" transform="translate(-62.44 -55.93)"/><path class="cls-1" d="M232.41,89.13c-.89-2.79-1.78-5.58-2.64-8.39-.08-.27-.52-.16-.44.12.8,2.82,1.55,5.66,2.32,8.48A.39.39,0,0,0,232.41,89.13Z" transform="translate(-62.44 -55.93)"/><path class="cls-1" d="M262.33,374.66a123.71,123.71,0,0,0-.92,24.18c0,.57.92.58.9,0A128.38,128.38,0,0,1,263.63,375C263.76,374.16,262.44,373.8,262.33,374.66Z" transform="translate(-62.44 -55.93)"/><path class="cls-1" d="M404.55,169.06c1.14-4.11,2.25-8.23,3.38-12.34a.2.2,0,0,0-.39-.1c-1.33,4-2.68,8.1-4,12.16C403.31,169.43,404.37,169.73,404.55,169.06Z" transform="translate(-62.44 -55.93)"/><path class="cls-1" d="M397.85,153.69a57.88,57.88,0,0,0,5-12.77.24.24,0,0,0-.46-.13,58.34,58.34,0,0,1-5.62,12.26C396.35,153.76,397.46,154.41,397.85,153.69Z" transform="translate(-62.44 -55.93)"/><path class="cls-1" d="M439.92,234.75a63.32,63.32,0,0,0-14.64-5.63,27.94,27.94,0,0,0-7.57-.69,33.13,33.13,0,0,0-7.55,1.56c-2.73.81-5.61,1.63-8.46,1h0c-2.2-.92-4.39-1.88-6.57-2.85-.12-.15-.24-.31-.37-.46a.3.3,0,0,0-.49.07l-4.38-1.94a102.37,102.37,0,0,0-12.46-4.86l1,.05a40.13,40.13,0,0,0,7.34-.63,38.43,38.43,0,0,0,6.29-1.71.41.41,0,0,0,.19.08c5.79,1.12,12.07,1.63,17.85.19a20.3,20.3,0,0,0,7.67-3.69,36.24,36.24,0,0,0,5.72-6.21c2-2.49,4-5,6.72-6.74.48-.3.34-1.22-.32-1.16a59.84,59.84,0,0,0-7.77,1.12,44.73,44.73,0,0,0-7.44,2.37,48.7,48.7,0,0,0-7,3.6c-2.25,1.39-4.41,2.91-6.62,4.36a50.23,50.23,0,0,1-6.8,3.87,40,40,0,0,1-7.31,2.45,37.56,37.56,0,0,1-4.33.71,14.05,14.05,0,0,0,2.13-.88c3.57-1.83,6-5.21,7.63-8.78.92-2,1.45-4.43,3.2-5.86.44-.37-.05-1-.53-.9A26.43,26.43,0,0,0,385,207.69a28.21,28.21,0,0,0-7.27,8.12c-1,1.52-2.09,3.31-4,3.68-.9-.1-1.79-.22-2.69-.35-4.95-.71-11.05-1.09-14.42,3.38l-.12.08c.44-.88.9-1.76,1.37-2.64a67.14,67.14,0,0,1,5.65-8.8,42.8,42.8,0,0,1,4.69-5.11,1,1,0,0,0,.36-.33v0c.59-.53,1.21-1,1.84-1.55l.45-.33.95-.61c.4-.26.18-1-.29-.86a.8.8,0,0,0-.57-.26.53.53,0,0,0-.34.11c-.52.37-1,.76-1.52,1.15-.82.39-1.63.82-2.42,1.29l-1.05.38a1,1,0,0,0-.54.41,1.32,1.32,0,0,0-.1.3c-.54.37-1.06.76-1.58,1.16l-.12,0a58.17,58.17,0,0,0,5.41-5.47,24.06,24.06,0,0,1,6.78-2.76l1.09-.26c4.37.22,8.67,1.78,12.91,2.74a40.75,40.75,0,0,0,15.79.45,38.45,38.45,0,0,0,8.61-2.5.56.56,0,0,0,0-1,49.19,49.19,0,0,0-34.5-3.26,46.43,46.43,0,0,0-5.25,1.8c.52-.4,1-.8,1.56-1.19.86-.6,1.72-1.2,2.59-1.79,2.54-1.77,5.06-3.65,7.75-5.2a14.49,14.49,0,0,1,4.11-1.64c.65-.14,1.31-.24,2-.33a40.55,40.55,0,0,0,28.78-.66c2.72-1.12,5.32-2.64,8.28-3.07.55-.08.5-1,0-1.08a61.43,61.43,0,0,0-37.42,3l.17-.1a47.37,47.37,0,0,0,11.15-9.43,36.79,36.79,0,0,0,6.42-12.33,54.46,54.46,0,0,0,1.77-7.76A49.89,49.89,0,0,0,412,147c0-.41-.58-.72-.88-.37-1.47,1.8-3,3.53-4.29,5.45a49.6,49.6,0,0,0-3.55,6.05A49,49,0,0,0,399,171.21a34.65,34.65,0,0,0-.65,6l-.26.36a.45.45,0,0,0,.28.68,2.64,2.64,0,0,1,0,.28,57.61,57.61,0,0,1-6.11,4.66c-1.74,1.17-3.5,2.3-5.26,3.43l-.27.12c-.2.1-.4.21-.59.33a17,17,0,0,0,3.77-7.31A94.67,94.67,0,0,0,392,167.37c.26-1.89.52-3.78.81-5.67l.06,0c.68-.52,1.34-1.07,2-1.61l0,0c.26-.2.51-.39.76-.6l.14-.12a.47.47,0,0,0,.41-.12,29.19,29.19,0,0,0,2.13-2.18l.21-.2a.31.31,0,0,0,.1-.16,33.74,33.74,0,0,0,7.73-17.19,32.37,32.37,0,0,0,.27-6.38c0-.34-.42-.65-.74-.42C399.83,137,396.07,143.88,394,151c-2.5,8.55-2.7,17.48-4.34,26.18-.75,3.93-2.06,8.14-5.4,10.64a.41.41,0,0,0-.09.55l-1.16.83-.44.31-1.06.67a.23.23,0,0,0-.1.16c-.6.4-1.2.8-1.79,1.22-1.62,1.14-3.19,2.34-4.75,3.57l-3.06,2.21a33.08,33.08,0,0,0,2-3.38,30.22,30.22,0,0,0,2.56-8.07s0,0,0,0c5.95-7.28,10.6-16.35,11.29-25.85a31.52,31.52,0,0,0-.43-7.88.54.54,0,0,0-.89-.24,31.36,31.36,0,0,0-7.51,10.9c-1.87,4.49-2.41,9.29-2.78,14.1s-.7,9.89-2.49,14.54a32.46,32.46,0,0,1-5.38,8.92,15.76,15.76,0,0,0-3.6,3.27l-.86.75c-.9.81-1.79,1.62-2.65,2.46s-1.69,1.67-2.49,2.54l-.15.16a27.91,27.91,0,0,0,1.49-7.89.58.58,0,0,0,.28-.44c.32-3.31.77-6.6,1.3-9.88A67.84,67.84,0,0,1,365,184a51.87,51.87,0,0,0,3.49-7.76,25.48,25.48,0,0,0,1.18-8.88,26,26,0,0,0-2.42-9.87.53.53,0,0,0-.82-.11,34.62,34.62,0,0,0-8.85,20,62.73,62.73,0,0,0,.56,13.06c-2.07-8.66-5.07-17.3-2.44-26.14a26.63,26.63,0,0,1,4.9-9.18l0,0a11.07,11.07,0,0,1,2.89-2.1.51.51,0,0,0,.54-.06c.23-.18.47-.34.71-.51,3.22-1.26,6.94-1.43,10.31-1.73a28.69,28.69,0,0,0,8.3-1.67A16.07,16.07,0,0,0,389,145.1a16.52,16.52,0,0,0,3.83-6.73.48.48,0,0,0-.8-.47c-4.06,3.41-9.26,4.8-14.25,6.23s-9.77,3-13.83,6.21a27.58,27.58,0,0,0-8.63,11.89,29.49,29.49,0,0,0-1,15.91c1.15,6.27,3.44,12.28,4.41,18.58a44.52,44.52,0,0,1,.05,5.89,24.76,24.76,0,0,1-2,8.46l-.59.48c0-1.44-.07-2.89-.12-4.33a21.36,21.36,0,0,0-.12-3.58.61.61,0,0,0,0-.14.52.52,0,0,0,.24-.46,110.81,110.81,0,0,0-1.84-17.71,33.91,33.91,0,0,0-5-13,19,19,0,0,0-5.49-5.26.5.5,0,0,0-.73.3,27.09,27.09,0,0,0,3.37,20.28c1.78,2.93,3.91,5.63,5.58,8.62a23,23,0,0,1,1.06,2.18c.11,1.1.2,2.2.25,3.29a.6.6,0,0,0,.21.44c0,.66.09,1.32.13,2,.11,1.82.15,3.65.11,5.47a.54.54,0,0,0,.15.4c-.25,1.62-.49,3.25-.66,4.87-.16.37-.32.74-.5,1.1-1.75,2.29-3.41,4.64-5.1,7-1.29,1.77-2.59,3.54-3.93,5.27-1.86,2.39-3.77,4.73-5.84,6.93-.33.35-.66.69-1,1,1.81-3.12,4.07-6,5.67-9.26A42.3,42.3,0,0,0,347,210.73a43,43,0,0,0-.52-9.48.54.54,0,0,0-.89-.24c-3.89,4.17-7.86,8.62-9.81,14.07a23.29,23.29,0,0,0-1,9.42c.19,3.08.62,6.19.23,9.28-.36,2.89-1.45,5.86-3.81,7.7a56.33,56.33,0,0,1-6,4c-.86.49-1.73.95-2.61,1.39-.15.06-.29.13-.44.18a22.13,22.13,0,0,0,4.57-20,23.17,23.17,0,0,0-2.73-6.34.47.47,0,0,0-.73-.1,15.73,15.73,0,0,0-3.76,9.81c-.12,4,1.05,8,1.09,12a14.67,14.67,0,0,1-.88,5.54c-5.57,2-11.42,3.15-17.12,4.79a37.64,37.64,0,0,0,11.29-17.43,33.78,33.78,0,0,0,1.47-9.25.45.45,0,0,0-.67-.39,25.74,25.74,0,0,0-12.08,14c-1.2,3.29-1.88,6.77-3.33,10a19.11,19.11,0,0,1-3.87,5.58,35.2,35.2,0,0,0-9,5.27,90,90,0,0,1,4.28-13.55c1.82-4.25,3.75-8.44,5.65-12.65a25.47,25.47,0,0,1,6.82-4.85c3.76-1.94,7.75-3.43,11.44-5.51a25.36,25.36,0,0,0,7.94-6.74A31.42,31.42,0,0,0,341,197.72a29.31,29.31,0,0,0,1.49-8.13.46.46,0,0,0-.68-.39c-4.12,2.31-8.36,4.74-11.55,8.29a18.2,18.2,0,0,0-3.68,6.15c-.93,2.63-1.32,5.41-2.32,8a19.85,19.85,0,0,1-2.23,4.2l-.92.87a3.59,3.59,0,0,1-.35.12.43.43,0,0,0-.28.49l-1.18,1.12a40.4,40.4,0,0,1-4.33,4l0,0c-.5.3-1,.6-1.51.88a8.24,8.24,0,0,1-1,.4,22.5,22.5,0,0,0,4.67-6,25.78,25.78,0,0,0,3.57-12.15,14.08,14.08,0,0,0-1.67-6.82.43.43,0,0,0-.67-.09,25,25,0,0,0-4.44,8c-1,3.13-1.15,6.3-1.41,9.56a14,14,0,0,1-2.46,7.44,17.72,17.72,0,0,1-1.44,1.11.5.5,0,0,0-.22.46l-.12.07a.41.41,0,0,0-.25.42,23.36,23.36,0,0,1-6.19,3,22.4,22.4,0,0,0-3.8,1.71l.52-1.18c.69-1.57,1.37-3.15,2-4.75s1.19-3.12,1.7-4.71c.6-1.84,1.1-3.7,1.56-5.58q1.67-5.35,2.93-10.81s0,0,0,0c.11-.27.24-.52.36-.78,2.6-2.8,6.75-4.18,10.35-5a61.71,61.71,0,0,0,8.8-2.36,21.21,21.21,0,0,0,6.89-4.57c2.3-2.21,4.36-4.65,6.78-6.74a.44.44,0,0,0-.31-.74c-10.78.44-22.3,3.59-29.88,11.7-.55.59-1.13,1.23-1.66,1.91.37-2.08.7-4.17,1-6.26a21.72,21.72,0,0,1,1.38-2.5,20.83,20.83,0,0,1,2.19-2.77,53.71,53.71,0,0,1,6.83-3.71c4.89-2.43,9.65-5.34,13-9.77a18.85,18.85,0,0,0,3.53-7.95c.06-.37-.37-.71-.67-.39-1.52,1.62-3.83,2.11-5.9,2.63a23.39,23.39,0,0,0-5.71,2.24,22.56,22.56,0,0,0-8.49,8.66,20.37,20.37,0,0,0-2.27,6.47c-.28.28-.55.57-.82.86s-.43.28-.64.44a13.21,13.21,0,0,0-1.74,1.6c.35-2.24.74-4.48,1.19-6.7,1.33-6.42,3.38-13,7.82-17.87l.81-.44a14.53,14.53,0,0,1,4.92-.89,54,54,0,0,0,7.63-.42,18.43,18.43,0,0,0,7.43-3.15,31.4,31.4,0,0,0,5.5-5.37,39.5,39.5,0,0,1,6.18-6.35.63.63,0,0,0-.49-1.15,128.71,128.71,0,0,0-16.2,4.81,47.27,47.27,0,0,0-9.59,5c.88-.9,1.77-1.78,2.62-2.7a37.67,37.67,0,0,0,4.69-6.27.47.47,0,0,0,.35-.59c.24-.41.45-.83.67-1.24a.61.61,0,0,0,.71-.55v-.2a35.12,35.12,0,0,1,6.86-3.35l.7-.08A42.67,42.67,0,0,0,352.18,143a19.41,19.41,0,0,0,5.79.29c1.93-.2,3.82-.63,5.72-1a22.4,22.4,0,0,1,6.78-.51c.57.06.69-.74.27-1a33.83,33.83,0,0,0-28.95-3.14c-.23,0-.46.06-.68.09,5.39-2.4,11.38-3.63,17.12-4.56,8.55-1.39,17.28-2.26,25.34-5.63a34.93,34.93,0,0,0,6.16-3.27,31.26,31.26,0,0,0,5.28-4.67.49.49,0,0,0-.22-.81,31.75,31.75,0,0,0-25.4,6.72,29,29,0,0,0-4.83,5l-.08,0a.48.48,0,0,0-.36.46c-6.18,1-12.38,1.85-18.31,3.84a37.44,37.44,0,0,0-11.32,6c1.58-2.54,3.2-5.07,4.92-7.51a63.78,63.78,0,0,1,5-6.26c4.49-2.54,9.89-2.54,14.9-3.13a29.27,29.27,0,0,0,7.73-1.79,25.16,25.16,0,0,0,6.61-4.16,75.31,75.31,0,0,0,6.65-6.6.42.42,0,0,0-.3-.71,46.15,46.15,0,0,0-22.48,5,47.8,47.8,0,0,0-8.66,5.63,8.08,8.08,0,0,0,.19-1c.29-.7.56-1.41.83-2.12,4.43-7.34,7.77-15.31,7.51-24a25.63,25.63,0,0,0-2-9.46h0s0-.09-.05-.13c-.25-.57-1.17-.16-1,.42.75,2.49-1.11,4.88-2.54,6.74a29,29,0,0,0-4,6.47,23.45,23.45,0,0,0-1.74,7.48,25.14,25.14,0,0,0,.82,7.72,21.74,21.74,0,0,1,1,6.18c-1.26,2.11-2.57,4.2-3.9,6.27a58.55,58.55,0,0,0-4.36,5.33c-1.31,1.79-2.51,3.67-3.68,5.56a65.38,65.38,0,0,0,3.16-16.34,97.33,97.33,0,0,0,0-12.78.64.64,0,0,0-1.18-.32c-2.78,3.85-5.64,7.87-7,12.48a19.13,19.13,0,0,0-.69,7.06,55.83,55.83,0,0,0,1.34,7.35,39.29,39.29,0,0,1,1.12,7.07,38,38,0,0,1-5.38,8.44c-2.19,2.59-4.75,4.91-6.71,7.67-.55.55-1.08,1.12-1.58,1.71a.86.86,0,0,0-.33.11,26.49,26.49,0,0,0-9.68,8.89,2.14,2.14,0,0,0,.1-.22,34.63,34.63,0,0,1,4.19-7.31.36.36,0,0,0,0-.09,63.43,63.43,0,0,0,4-5.5,47.7,47.7,0,0,0,6.46-16.5,52,52,0,0,0,.92-9.88A.55.55,0,0,0,324,128a29.83,29.83,0,0,0-11.37,12,30.25,30.25,0,0,0-2.81,7.86,69.91,69.91,0,0,0-.81,10,44.75,44.75,0,0,1-1,7.12,59.53,59.53,0,0,0-2.51-13.15c-.87-3.17-1.82-6.33-2.42-9.58-.22-1.14-.36-2.29-.48-3.45a34.06,34.06,0,0,0,2.25-3.24c3-3.24,6.91-5.48,10.25-8.36a27,27,0,0,0,8.44-13.75,25.86,25.86,0,0,0,.73-9.1.61.61,0,0,0-.91-.52,26.86,26.86,0,0,0-11.21,9.91,28.69,28.69,0,0,0-3.18,7.55c-.82,2.93-1.44,5.91-2.53,8.75a39.61,39.61,0,0,1-1.68,3.7,16.3,16.3,0,0,0-2.32,2.79c-.06-1.17-.08-2.35,0-3.52a54.34,54.34,0,0,1,3.93-18c.71-1.8,1.52-3.55,2.39-5.26a.76.76,0,0,0,.24-.2c4-5.44,11-7,17.15-8.73A39,39,0,0,0,335.59,97a21.44,21.44,0,0,0,6.81-6.79,41.5,41.5,0,0,0,4.35-10,.62.62,0,0,0-.76-.76c-8.61,1.47-16.32,7.23-20.91,14.57a26.83,26.83,0,0,0-2.78,5.88h0a.63.63,0,0,0-.28.74,45.46,45.46,0,0,0-5.93,2,22.64,22.64,0,0,0-5.26,3.11c1.37-2.35,2.83-4.64,4.35-6.9.77-1.15,1.55-2.32,2.32-3.5a29.88,29.88,0,0,0,7.26-7.06,15.92,15.92,0,0,0,2.09-11.38,16.2,16.2,0,0,0-2.33-6.34.61.61,0,0,0-.95-.12A33.85,33.85,0,0,0,315.7,92.2a.32.32,0,0,0,.64,0,32.55,32.55,0,0,1,7.54-20.27,17.3,17.3,0,0,1,1.7,10.25,15.83,15.83,0,0,1-5,8.92c-.34.32-.69.63-1,.94a28.56,28.56,0,0,0,4-11.21c.06-.64-1-.78-1.12-.15-1.24,5.9-4.34,11-7.65,15.93-1.68,2.52-3.4,5-4.94,7.62-.59,1-1.15,2-1.69,3,0-.37.05-.74.07-1.11a51,51,0,0,0,.13-13.24,28,28,0,0,0-5-12.77,19.21,19.21,0,0,0-5.38-5.1.7.7,0,0,0-1.05.6c.14,2.43.1,4.88.25,7.31a47.75,47.75,0,0,0,.93,7.15,41.63,41.63,0,0,0,3.79,9.88,1.15,1.15,0,0,0-.14-.17A73.53,73.53,0,0,1,296.33,93a33.92,33.92,0,0,1-4.06-11.35A21.4,21.4,0,0,0,290.06,62,18.31,18.31,0,0,0,286,57.73c-.48-.36-1.11.45-.65.84l.28.25c-2.35,6.12-1.38,13.4,1.88,19A21.46,21.46,0,0,0,291,82.34a.47.47,0,0,0,.12.07c.17,1,.37,2,.61,3A29.46,29.46,0,0,0,294.6,93a41.19,41.19,0,0,0,5.25,6.81c1.46,1.66,2.95,3.3,4.43,4.94a53.66,53.66,0,0,1,2.37,5.31l0,.06c-.38.83-.76,1.66-1.11,2.49a60.12,60.12,0,0,0-4.06,13.93c-1.73-5.16-5.94-9.19-9.7-13l-.22-.23a.69.69,0,0,0,.18-.71c0-.18-.09-.35-.14-.53a36.29,36.29,0,0,0-2.25-23.3,40.77,40.77,0,0,0-3.49-6.22.66.66,0,0,0-1.19.15c-2,6.89-4,14.63-1.39,21.63,2.43,6.47,8.26,10.54,12.75,15.47a20,20,0,0,1,5.15,8.95c-.07.6-.14,1.2-.18,1.8a44.82,44.82,0,0,0,.18,9.19A58.72,58.72,0,0,0,303.3,149c1.4,4.81,3.16,9.72,3.69,14.72a13.73,13.73,0,0,0-2-4.06,25.15,25.15,0,0,0-4.57-4.76.68.68,0,0,0,.12-.91l-.17-.26a35,35,0,0,0-8.12-21.16,35.85,35.85,0,0,0-4.87-4.83.71.71,0,0,0-1.2.5c.18,5.82,1.11,11.72,3.74,17a24,24,0,0,0,5.22,7c1.2,1.1,2.5,2.1,3.79,3.12a.71.71,0,0,0,.51.41,38,38,0,0,1,3.12,2.7c2.46,2.43,4.49,5.75,3.83,9.35a.42.42,0,0,0,.4.49c-.11.26-.21.52-.31.8a.43.43,0,0,0,.31.57v0a.28.28,0,0,0,.06.27c0,.16,0,.32-.07.48a.4.4,0,0,0,.09.33q-.33,1-.63,2h0a6.78,6.78,0,0,0-1-2.44,37.34,37.34,0,0,0-10.44-13.73,32.55,32.55,0,0,0-4.79-3.21.45.45,0,0,0-.52,0,.43.43,0,0,0-.64.37,20.43,20.43,0,0,0,10.89,18,19.2,19.2,0,0,0,5.61,1.91.52.52,0,0,0,.51.21c-3.17,7.3-4.56,15.71-6.11,23.2a102.82,102.82,0,0,1-6.59,20.36q-1.69,3.43-3.41,6.86c-.66,1.33-1.3,2.66-1.94,4-.29.54-.59,1.08-.89,1.61.18-2,.22-4.05.22-6.07,0-4.6,0-9.21.05-13.82,0-1.67.07-3.35.11-5,6.76-7.58,7.87-18.92,5.67-28.53-.43-1.87-1-3.72-1.57-5.54-.43-1.31-.86-2.66-1.4-4a1.5,1.5,0,0,1,0-.2.25.25,0,0,0-.23-.26c-.13-.28-.25-.57-.39-.84a.29.29,0,0,0-.34-.16.44.44,0,0,0-.64.12c-6,9.06-8.18,20.6-6.61,31.31a38.78,38.78,0,0,0,2.34,8.85.72.72,0,0,0,.91.4.71.71,0,0,0,.59.27c-.19,5.08-.28,10.17-.18,15.26a63.48,63.48,0,0,1-.39,11.37c-1.29,2.18-2.63,4.35-4,6.49C277,246,272.53,252.2,268,258.29l-.25.13c-.35-1.79-.61-3.58-.8-5.38,1.25-6,3.76-11.7,5-17.74.46-2.34.78-4.7,1-7.07.82-1.68,2-3.17,2.84-4.84a29.51,29.51,0,0,0,2-5.29,30.12,30.12,0,0,0,.86-11.3,29.2,29.2,0,0,0-1.42-6.32.63.63,0,0,0-1-.27,27.1,27.1,0,0,0-5.86,21.67,27.42,27.42,0,0,0,1.33,4.87c-.27,2.35-.58,4.7-1,7a88.24,88.24,0,0,1-2.71,10.49c-.46,1.48-.93,3-1.35,4.48-.65-13.53,1.86-27.3-.73-40.74-.15-.75-.32-1.49-.48-2.23a37.76,37.76,0,0,0,6.45-9.66c1.69-3.64,3.28-7.82,2.38-11.87a.63.63,0,0,0-1-.28,32.23,32.23,0,0,0-8.83,17.44c-.57-2.29-1.17-4.58-1.7-6.88-.33-1.43-.6-2.86-.85-4.3h0c0-.13.08-.27.11-.41a31.62,31.62,0,0,1,5.22-6.44,65.33,65.33,0,0,0,6.06-6.82A46.7,46.7,0,0,0,280.93,160a46.07,46.07,0,0,0,1.36-10.12.56.56,0,0,0-.84-.48,50.22,50.22,0,0,0-13.75,15.23A52.31,52.31,0,0,0,261,183.74c-.05-.62-.12-1.23-.16-1.85-.57-8.31-.15-16.65-.65-25a92.69,92.69,0,0,0-1-9.38,21.76,21.76,0,0,1,5.05-5.13,55.5,55.5,0,0,0,6.26-5.4,40,40,0,0,0,8.58-13.9,41.2,41.2,0,0,0,2.12-9c.06-.46-.54-.72-.89-.51a74.1,74.1,0,0,0-14.2,10.54,32.91,32.91,0,0,0-7.21,10.24c1.38-3.84,3.69-7.4,5.67-11A66,66,0,0,0,271,107.14a.66.66,0,0,0,.81-.2,46.32,46.32,0,0,0,8.87-27.26,48.21,48.21,0,0,0-.73-8.14.58.58,0,0,0-1.05-.14c-5,8.61-10.06,17.66-10.57,27.82a28.93,28.93,0,0,0,.82,8.24.31.31,0,0,0,.21.24l0,0q-.89,2.94-2,5.8a72.34,72.34,0,0,1-4.14,9c-1.49,2.73-3.12,5.38-4.46,8.19a28.46,28.46,0,0,0-2.32,6.56c-.4-1.07-.85-2.12-1.33-3.16-.44-1.53-.9-3-1.33-4.58-.27-.92-.51-1.85-.75-2.78q-.59-4.29-1.3-8.56a.56.56,0,0,0,.07-.3c0-.35-.07-.69-.11-1,10-10.08,13.19-24.68,13.32-38.46,0-4.43-.2-8.87-.55-13.3a.75.75,0,0,0-1.38-.37,74.67,74.67,0,0,0-12.47,29.9,76.36,76.36,0,0,0-1.21,14.08c-.31-.75-.63-1.48-1-2.21-1.74-3.78-3.68-7.45-4.64-11.52a19.22,19.22,0,0,1-.47-5.32.56.56,0,0,0,.27-.17c5.46-6.52,6.12-15.57,4.26-23.57a57.57,57.57,0,0,0-2.4-7.55c-.27-.72-1.44-.42-1.18.33,2.73,7.71,4.76,16.45,1.71,24.37a18.55,18.55,0,0,1-2.34,4.31c.08-7.52-.19-15-.28-22.56a.32.32,0,0,0-.64,0c-.15,7.22-.47,14.44-.49,21.66a27.26,27.26,0,0,1-1.94-23.23A25.48,25.48,0,0,1,243.84,57l0,.14.2.44a.33.33,0,0,0,.15.16.44.44,0,0,0,.19.1.45.45,0,0,0,.23,0,.35.35,0,0,0,.21-.07.56.56,0,0,0,.26-.34.57.57,0,0,0-.06-.44l-.19-.34-.1-.17a1.5,1.5,0,0,0-.19-.25l.08.1-.1-.13a.47.47,0,0,0-.28-.22.5.5,0,0,0-.32,0l0,0a.39.39,0,0,0-.52.05c-6,7.17-7.47,17.54-4.46,26.29a25,25,0,0,0,3.35,6.51.6.6,0,0,0,.17.41c-.64,3.56.31,7.38,1.52,10.68,1.43,3.87,3.44,7.5,5,11.32.24.61.47,1.23.68,1.85a72.16,72.16,0,0,0,1,8.16c.53,8.29,1.09,16.57,1.75,24.85a.7.7,0,0,0,0,.25,137.38,137.38,0,0,1-1.3,20.77c-.15,1.16-.34,2.31-.52,3.46a45.76,45.76,0,0,0-3-8.89c-.6-2-1.28-4-2-5.94,0,0,0-.06,0-.09a2.14,2.14,0,0,1-.1-.22l-.45-1.19c-.24-.93-.45-1.87-.64-2.81a.5.5,0,0,0,.38-.55,18.67,18.67,0,0,1,1-6.9,47.19,47.19,0,0,0,1.71-6.94,46.36,46.36,0,0,0-.63-14.39c-.48-2.74-1.16-5.44-1.73-8.16a.57.57,0,0,0-1.09,0c-1.6,5.46-3.63,10.89-4.48,16.53a33.13,33.13,0,0,0,.12,10.33c-2.65-6.48-5-13.07-6.09-20a40.27,40.27,0,0,1,0-12.35.5.5,0,0,0,.19-.42c0-.11,0-.21,0-.32.18-.92.39-1.84.64-2.76a.18.18,0,0,0,.05-.07c4.1-11.1,1.5-23.28-4.37-33.22a61.51,61.51,0,0,0-5.43-7.68.61.61,0,0,0-1,.26,50.47,50.47,0,0,0,.29,18c1.21,5.81,3.83,11.07,6,16.56a44.12,44.12,0,0,1,2.74,9.41.37.37,0,0,0,.14.26c-1.41,7.88,0,16,2.34,23.65a47.22,47.22,0,0,0-3.13-4.69.57.57,0,0,0-.22-.7l-.66-.42q-.5-.63-1-1.23a41.3,41.3,0,0,0-4-5.91,29,29,0,0,0-4-4.21.8.8,0,0,0-.12-.85,80,80,0,0,1-7-9.67,37.11,37.11,0,0,0-8.69-29.88,34.36,34.36,0,0,0-6.49-5.73c.1-.46-.64-.78-.85-.31h0a.55.55,0,0,0-.34.66l0,.11a27.45,27.45,0,0,0-.84,17.2,28.38,28.38,0,0,0,8.71,13.9,27.6,27.6,0,0,0,7,4.48l0,0A63.24,63.24,0,0,1,195.81,94.9C193.28,88,191.33,80.33,185,76a12.9,12.9,0,0,0-5.41-2.17.46.46,0,0,0-.51.66,60.18,60.18,0,0,0,15.85,21.32c.1.25.2.51.31.77a.62.62,0,0,0,.92.26,58.24,58.24,0,0,0,7.75,5.34,55,55,0,0,0,9.67,4.3.35.35,0,0,0,.35-.06l.2.33c1.17,1.9,2.45,3.74,3.79,5.53-4.55-3.82-11.12-4-16.82-4.64l-1-.12a.41.41,0,0,0-.08-.27,58.43,58.43,0,0,0-7.57-8.6A25.73,25.73,0,0,0,183.19,93a17.77,17.77,0,0,0-6.05-.86.52.52,0,0,0-.45.78,29.67,29.67,0,0,0,21.4,15.48c3.76.63,7.6.63,11.35,1.32a18.08,18.08,0,0,1,8.37,3.53,21.16,21.16,0,0,0-4.62-.86,46.94,46.94,0,0,0-8.71.17c-1.48.14-2.94.33-4.41.52-1,.13-2.21.23-2.57,1.36s.32,2.08.89,2.9a18.62,18.62,0,0,0,2.28,2.66,24.85,24.85,0,0,0,13.17,6.33,51,51,0,0,0,9,.61,19.51,19.51,0,0,1,7.22.92,49.6,49.6,0,0,1,6.88,11.39.45.45,0,0,0,.44.27c.42,1.11.86,2.22,1.3,3.32a22.34,22.34,0,0,0-3.36-4c-3.52-3.32-8-4.82-12.75-5.37a71.12,71.12,0,0,0-8.26-.32.58.58,0,0,0-.5.87c4.42,8,12.44,12.91,20.83,15.92a64.7,64.7,0,0,0,7.83,2.24c.42,1.05.83,2.1,1.24,3.16a54.38,54.38,0,0,0,2.53,7.23,55.46,55.46,0,0,1,2.59,14.79.54.54,0,0,0,.37.53,80.22,80.22,0,0,0-2.2,11.4c-1.1,5.08-2.27,10.14-3.33,15.23-.55-2.56-1.07-5.13-1.49-7.72-.67-4.19-1.17-8.41-1.66-12.63-.9-7.72-2-15.66-5.91-22.51a26.59,26.59,0,0,0-7.66-8.61.64.64,0,0,0-.93.38,57.57,57.57,0,0,0,11.78,43.24,34.17,34.17,0,0,1,4.07,6c.33,1.61.7,3.2,1.1,4.79,0,.21,0,.42,0,.64,0,0,0,.06,0,.09-.1.51-.21,1-.31,1.54q-.93,4.92-1.65,9.88a36.75,36.75,0,0,0-1.2-6.59,59.87,59.87,0,0,0-2.37-7.15,11.5,11.5,0,0,0-4.27-5.62.59.59,0,0,0-.86.35c-1.39,8.69-2.82,18,.49,26.44a28.64,28.64,0,0,0,2.84,5.36,54,54,0,0,0,.64,8c-6.78-8.29-8.67-18.76-10-29.19a50.39,50.39,0,0,0,1.85-17.28,43.24,43.24,0,0,0-3.57-15.57,25.37,25.37,0,0,0-4.77-7,.68.68,0,0,0-1.13.3c-2.44,10.65-2.65,22.19,2,32.28a30.76,30.76,0,0,0,3.81,6.19c0,.39.06.78.1,1.17a85.38,85.38,0,0,0,2.31,14.18c-1-2-2-4-2.84-6.05l0,.09c-4.18-10-8-20.18-13.59-29.5-.16-2.16-.27-4.32-.36-6.48.35-1.73.79-3.43,1.3-5.13,1-3.29,2.14-6.52,3-9.84a47.82,47.82,0,0,0-2.38-31c-.21-.49-.9-.27-1.05.14-4.61,13.22-9.42,27.37-6.2,41.49.18.8.41,1.58.64,2.36-3.1-5.62-4.33-12.12-5.11-18.47-.43-3.59-.79-7.2-1.26-10.79A32.54,32.54,0,0,0,196,126a28,28,0,0,0-5-6.32.47.47,0,0,0-.66.66v0c-3.36,8.73-1.12,18.61,3.13,26.62a57.29,57.29,0,0,0,4.14,6.62.59.59,0,0,0,.37.24c.69,6.65,1.12,13.36,2.85,19.84a37.41,37.41,0,0,0,2.22,6.16c-1-1.12-2.13-2.22-3.22-3.29a101.78,101.78,0,0,1-9.17-9.64,28.57,28.57,0,0,1-3.62-6c-.19-.44-.36-.89-.52-1.35l0-.06a26.44,26.44,0,0,1-.29-4.07c0-2.4.14-4.8.11-7.21a31.48,31.48,0,0,0-3.08-13.28,28.26,28.26,0,0,0-4.19-6.4c-.32-.36-.84,0-.75.43.89,4.2.74,8.58.93,12.88a.89.89,0,0,0-.66.35,118.23,118.23,0,0,1-1.75-15.59c0-.24,0-.48-.05-.72A22.61,22.61,0,0,0,183.79,108c0-.37-.55-.69-.82-.34a35.89,35.89,0,0,0-6.58,14.24,78.28,78.28,0,0,0-1.25-8.78,62.28,62.28,0,0,0-4.64-13.39c-2.28-4.92-5-9.62-7.73-14.3a.49.49,0,0,0-.89.12,29.86,29.86,0,0,0,6.32,28.21,28.74,28.74,0,0,0,5.94,5.06.67.67,0,0,0,.43.28l.15.1a.32.32,0,0,0,.09,0c.79,6.56.9,13.22,1.92,19.76a47.59,47.59,0,0,0,2.31,9.21,59.57,59.57,0,0,0,2.86,13.19,40.89,40.89,0,0,0,4.23,8.44c.31.47.63.93,1,1.4a56.41,56.41,0,0,0-7.62-5.08.11.11,0,0,0,0-.08c-.26-.61-.56-1.2-.88-1.79a42.75,42.75,0,0,0-6.5-22.92,45,45,0,0,0-4-5.49.55.55,0,0,0-.92.25c-1.79,8.88-1.17,19.08,5.36,26,.31.33.64.63,1,.94-2.44-1.15-4.91-2.24-7.37-3.3a.4.4,0,0,0-.07-.59c-5.11-3.66-5.93-10.77-5.28-16.56.45-4,1.58-7.93,2.26-11.92a28.44,28.44,0,0,0-.08-11.8,51.65,51.65,0,0,0-5.23-12.12.44.44,0,0,0-.67-.08c-3.47,3.22-4.51,8-4.5,12.57a42.32,42.32,0,0,0,3.39,15.3c1,2.71,2.26,5.33,3.55,7.93a24.21,24.21,0,0,0,.53,9.34,13.8,13.8,0,0,0,4.66,7.31l-3.56-1.55c-1.47-.65-3-1.29-4.41-2a.37.37,0,0,0-.31-.3c-.18,0-.35-.08-.53-.12-.75-.37-1.49-.75-2.22-1.16l0-.09a.53.53,0,0,0,0-.58c-.12-.19-.22-.38-.33-.56-1.84-6.82-1-13.9-1.58-20.89a46.75,46.75,0,0,0-6.92-20,104.41,104.41,0,0,0-6.89-9.92.61.61,0,0,0-1.11.47,209.68,209.68,0,0,1,3.83,23.66c.66,6.3.76,12.92,3.15,18.87a18.61,18.61,0,0,0,5.2,7.45c.4.34.82.65,1.25,1a31.1,31.1,0,0,1-12.29-9.65c-4.71-6.22-7.25-13.8-12.32-19.77-2.55-3-5.83-5.74-9.71-6.78a.73.73,0,0,0-.91.69,33.83,33.83,0,0,0,4.77,14.43,35,35,0,0,0,11.21,11.17A68.57,68.57,0,0,0,138,147.3h0a.7.7,0,0,0,.36.17l.95.46a.54.54,0,0,0,.43,0,30.58,30.58,0,0,0,4.81,3.8,31.55,31.55,0,0,0,9.58,4c1.12.57,2.27,1.09,3.41,1.61,5.87,2.69,11.9,5,17.71,7.84q1.56.77,3.09,1.59a.62.62,0,0,0,.46.24,56.48,56.48,0,0,1,9,5.92s0,0,0,0a75.32,75.32,0,0,1,9.56,14.11c.21.45.43.89.62,1.35.93,2.23,1.77,4.51,2.58,6.79s1.6,4.73,2.3,7.13a98.85,98.85,0,0,1,3.1,14.45c.19,1.42.34,2.85.46,4.27.1,1.17.17,2.34.24,3.51,0,.6.07,1.2.1,1.79-.1-.17-.21-.34-.32-.51a51.25,51.25,0,0,0-4.12-5.59c-.71-.85-1.45-1.68-2.2-2.49a.7.7,0,0,0,.32-.87l-.43-1a49.54,49.54,0,0,0-1.06-6.67,66.74,66.74,0,0,0-2-7.36A72.32,72.32,0,0,0,190.77,188a64.62,64.62,0,0,0-4.81-7.14.35.35,0,0,0-.44-.11.45.45,0,0,0-.39.36c-2.41,9.3-.18,19.74,5.21,27.65q-1.87-1.56-3.78-3.09a.4.4,0,0,0-.06-.61c-.45-.31-.88-.63-1.3-1-2-8.43-2.63-17.36-7.09-25a25.47,25.47,0,0,0-4.07-5.28.56.56,0,0,0-.94.38c-.11,9.39,1.55,19.31,7.7,26.74l.22.26a119.56,119.56,0,0,1-9.56-8.59.65.65,0,0,0,0-.14,55,55,0,0,0-2.21-8.26,48.59,48.59,0,0,0-3.38-7.76,30.19,30.19,0,0,0-10.1-11.1,22.58,22.58,0,0,0-7.68-3.08.54.54,0,0,0-.6.77c2.32,4.81,3.69,10,6,14.82a28.57,28.57,0,0,0,4.15,6.53,28.27,28.27,0,0,0,6.19,5.19,65,65,0,0,0,6.56,3.58,108.62,108.62,0,0,0,8.19,7.87c1.14,1,2.28,2,3.43,2.93a29.71,29.71,0,0,0-27.32-1.36.57.57,0,0,0-.27.48c0,1,.9,1.67,1.62,2.25a21.44,21.44,0,0,0,2.63,1.8,23.21,23.21,0,0,0,5.89,2.39,30.1,30.1,0,0,0,13.68.09,40,40,0,0,0,7.63-2.4A129,129,0,0,1,199.58,220c.9,1,1.76,2.06,2.58,3.13-6.43-4.88-14.95-6.24-22.94-5.5-1.3.12-2.58.29-3.86.5-1,.16-2.14.51-1.81,1.76.24.94,1.27,1.73,1.95,2.37a28.2,28.2,0,0,0,2.46,2,27,27,0,0,0,11.66,4.82,25.33,25.33,0,0,0,7.17.11c2.84-.37,5.59-1.21,8.42-1.63.33.55.65,1.11.95,1.67s.6,1.17.89,1.76l.06.71a50,50,0,0,0,1.13,10c.1.41.23.81.34,1.22s.11.6.18.9a35.74,35.74,0,0,0,3.36,9.18c-2.54-2.14-3.49-5.86-4.81-8.8a21.58,21.58,0,0,0-8.77-9.7,20.91,20.91,0,0,0-7.08-2.64.65.65,0,0,0-.72.94,96,96,0,0,0,6.82,9.69,70.39,70.39,0,0,0,8.21,8.44c.71.62,1.44,1.21,2.19,1.79-.52-.27-1-.54-1.57-.8-2.36-1.16-4.73-2.29-7.07-3.49-2.16-1.11-4.29-2.29-6.41-3.48a166.75,166.75,0,0,1-20.11-13.17l-.37-.29c-1.56-1.81-3.11-3.63-4.67-5.42-5.93-6.81-12.15-13.38-18-20.27a21.36,21.36,0,0,1-.6-4.5s0,0,0,0l0,0s0,0,0-.05a.55.55,0,0,0,0-.45l0-.05c0-1.13,0-2.26.1-3.39a54.61,54.61,0,0,0,.15-9.22,35.5,35.5,0,0,0-2.16-8.65,68,68,0,0,0-4.25-9.22.64.64,0,0,0-1.16.16,38.25,38.25,0,0,0-1.43,6.34,31.09,31.09,0,0,0-.08,6.54A32.88,32.88,0,0,0,144,195.54a25,25,0,0,0,3.85,5.44c0,.12,0,.23.07.35a.6.6,0,0,0,.24.36,22.55,22.55,0,0,0,.29,2.59L147.41,203c-1.6-2-3.19-4-4.68-6-.48-.95-.95-1.9-1.4-2.86a.55.55,0,0,0-.51-.29.8.8,0,0,0-.21,0,42.49,42.49,0,0,1-4.69-9.42c-.27-3.69-.33-7.4-.77-11.07a57.9,57.9,0,0,0-3.89-14.74,166.68,166.68,0,0,0-7.44-15.41.54.54,0,0,0-1,.12c-3.37,9.82.18,20.21,5.59,28.55.61.94,1.27,1.86,1.92,2.78-1.64-1.34-3.41-2.53-5.16-3.72a54.16,54.16,0,0,1-5.86-4.57h0c0-.38-.12-.77-.17-1.16a.65.65,0,0,0,.13-.83l-.35-.62a82.91,82.91,0,0,0-2.91-12.7A39.5,39.5,0,0,0,109.9,139a28.71,28.71,0,0,0-5.32-5.3c-.37-.29-.9.11-.9.52a44.87,44.87,0,0,0,5.11,20.61,44.21,44.21,0,0,0,14.08,16c3.56,2.44,7.54,4.41,10.39,7.74a.44.44,0,0,0,.15.1l0,0a31.65,31.65,0,0,0,.71,5c.08,1.53.2,3.06.4,4.58a34.29,34.29,0,0,0,1.32,6c-4.29-4.47-9.93-7.15-15.56-9.63a.53.53,0,0,0,.08-.62,66.6,66.6,0,0,0-4-7.05,61.9,61.9,0,0,0-4.64-6.42A33.61,33.61,0,0,0,100,161.39a25.68,25.68,0,0,0-7.88-2.14c-.63-.07-.8.74-.47,1.13,2.88,3.42,4.66,7.49,7.07,11.22a27.77,27.77,0,0,0,8,8c6.16,4.1,13.36,6.18,19.93,9.48a31.68,31.68,0,0,1,9.85,7.1h0a37.2,37.2,0,0,0,2.38,5.13l-.37-.26-.26-.23a32.56,32.56,0,0,0-20.35-10.7,30.76,30.76,0,0,0-7.24-.07.63.63,0,0,0-.6.78c.63,2,2.41,3.45,4.08,4.61a24.27,24.27,0,0,0,5.65,2.82,45.38,45.38,0,0,0,5,1.42c-1.13-.06-2.24-.1-3.33-.13l-3.77-.06A25.22,25.22,0,0,1,107.8,196a30.71,30.71,0,0,1-7.67-7c-4.18-5.2-7.28-11.18-11.59-16.29a22.31,22.31,0,0,0-8.46-6.58c-.45-.19-.75.32-.7.69a35.34,35.34,0,0,0,1.81,7.53A31.13,31.13,0,0,0,84.67,181a29.57,29.57,0,0,0,11.42,9.89c2.35,1.13,4.94,1.89,7.24,3.15a25.43,25.43,0,0,0,3.18,2.46,24.31,24.31,0,0,0,6.43,2.88c-1.66-.07-3.32-.16-5-.34a71.84,71.84,0,0,1-12.49-2.53,73.06,73.06,0,0,1-13.27-5.38.69.69,0,0,0-1,.59,13.25,13.25,0,0,0,3.19,7.94,28.73,28.73,0,0,0,6.16,6,15.35,15.35,0,0,0,7.82,2.93,15.61,15.61,0,0,0,8.17-2,41.09,41.09,0,0,0,8-5.82c1.3,0,2.6.06,3.91.07a71.2,71.2,0,0,1,13.13.94,27.64,27.64,0,0,1,10.14,4.09l.23.32c.58,1.26,1.18,2.52,1.79,3.76l.48.93a37.2,37.2,0,0,0-9.91-3,58.31,58.31,0,0,0-14.4-.42c-10.48.91-20.54,4.08-30.73,6.49A95.61,95.61,0,0,1,71,216.82a.52.52,0,0,0-.26,1,23.36,23.36,0,0,0,15,4,30.53,30.53,0,0,0,15-5.36,43.73,43.73,0,0,0,6.8-5.79c8-1.79,16.23-3,24.45-2.07a42.1,42.1,0,0,1,12.89,3.52q2.14,4.19,4.6,8.19a83.18,83.18,0,0,0-27.15-9.49,85.35,85.35,0,0,0-9.57-1,.58.58,0,0,0-.41,1c4,4.43,7.65,9.53,13,12.52,5.62,3.16,12.22,3.1,18.48,2.92,3.17-.1,6.34-.19,9.5,0q1.88,2.68,3.88,5.28a26.13,26.13,0,0,0-5.65-2.62s0-.05-.08-.06a19,19,0,0,0-2.64-.7c-1-.24-2.06-.45-3.11-.59-6.79-1-13.58,0-20.31,1-4.22.64-8.43,1.25-12.69,1.57a.7.7,0,0,0-.48,1.17,21.8,21.8,0,0,0,14.43,6.15c5.61.15,10.77-2.29,15.78-4.52a47.68,47.68,0,0,1,8.43-3c.55.16,1.1.32,1.65.51a24,24,0,0,1,6.72,3.64c1.05,1.27,2.13,2.53,3.23,3.76,1.39,1.83,2.85,3.63,4.41,5.31.57.62,1.16,1.21,1.75,1.79-7.52-4.17-15.67-7.63-24.31-7.56a26.93,26.93,0,0,0-8.71,1.49.55.55,0,0,0,0,1q7.84,3.09,15.85,5.68a81.59,81.59,0,0,0,8,2.28,36.48,36.48,0,0,0,7.45.66c2.5,0,5.23.11,7.27,1.76a.45.45,0,0,0,.58,0q2.1,1.69,4.23,3.34c2.84,2.2,5.67,4.42,8.37,6.79a62.46,62.46,0,0,1,5.13,5,22.31,22.31,0,0,0-5.66-2c-3.94-6-11.58-7.84-18.2-9.18-2.48-.5-5-.89-7.49-1.27-.42-.06-1,.39-.64.84a24.42,24.42,0,0,0,12.08,8.42,52.49,52.49,0,0,0,9.31,1.65,82.49,82.49,0,0,0-10.59.71c-3.07.35-6.17.71-9.28.78a28.23,28.23,0,0,0-11.8-10.49,22.52,22.52,0,0,0-15.47-1.39A19.5,19.5,0,0,0,127,257.6a.6.6,0,0,0,.58,1c4.69-1.21,9.49.37,13.74,2.32s8.39,4.28,13.05,5.18a44.49,44.49,0,0,0,12.93.24c-2.9.8-5.8,1.62-8.74,2.19-1,.19-1.94.36-2.92.51a.41.41,0,0,0-.25-.42c-7.72-3.38-16.65-5.34-25-3.47a25.91,25.91,0,0,0-6.69,2.53.61.61,0,0,0,.15,1.09,77.26,77.26,0,0,0,22,2.4A75.1,75.1,0,0,0,156.74,270a105.25,105.25,0,0,0,10.92-2.79c1.73-.51,3.47-1,5.23-1.47a75.67,75.67,0,0,1,9.62-.62,33.43,33.43,0,0,1,7.5.85,11.22,11.22,0,0,0-3.72,1.75.18.18,0,0,1-.07.05c-2,1-4,2.07-5.9,3.11-4.6,2.45-9.18,4.94-13.68,7.57-2.56,1.49-5.1,3-7.59,4.64a.69.69,0,0,0,.35,1.27c5.22.08,10.65.14,15.58-1.87a16.88,16.88,0,0,0,5.75-3.75c1.75-1.79,2.9-4,4.38-6a29.28,29.28,0,0,1,6.42-5.79.71.71,0,0,0,.17-.21l.46-.1c.51.18,1,.38,1.52.6.22.15.45.31.67.48l.07,0a1.92,1.92,0,0,1,.18.22,28.79,28.79,0,0,1,1.89,2.77,30.87,30.87,0,0,1,1.73,3.51c.95,2.33,1.72,4.73,2.51,7.11.13.42.27.85.42,1.26s.23.55.35.83c.25.54.51,1.08.77,1.61.72,1.46,1.45,2.9,2.17,4.36s1.41,2.85,2,4.32c.12.3.24.61.35.92s.11.34.16.51a.91.91,0,0,0-.14-.07c-2-.64-3.41-2.36-4.63-4a53.55,53.55,0,0,0-4.28-5.32c-3.19-3.27-7.35-5.73-12-5.79a12.06,12.06,0,0,0-3.58.51,10.71,10.71,0,0,0-3.25,1.69.54.54,0,0,0,0,.93c3.53,2,6.39,4.92,9.6,7.36a48.7,48.7,0,0,0,10.9,6c.57.24,1.14.46,1.71.67a42.41,42.41,0,0,1-4.51,0c-2.4-.12-4.78-.37-7.16-.68-1.57-.22-3.14-.47-4.7-.76-1.22-.22-2.44-.46-3.65-.77-6.17-1.53-12.18-3.58-18.24-5.51-3-1-6.1-1.9-9.18-2.74l-1.38-.36a.5.5,0,0,0-.14-.45c-5.13-5.53-12-12.18-20.27-10a.52.52,0,0,0-.23.87,56.57,56.57,0,0,0,11.59,7.58c-2.76-.57-5.52-1.14-8.26-1.78-3.09-.72-6.16-1.56-9.17-2.55-1.08-.36-2.14-.74-3.2-1.14a.33.33,0,0,0-.06-.14,47.88,47.88,0,0,1-4-6.12.57.57,0,0,0,0-.38c-.42-.92-.85-1.84-1.28-2.76a17.66,17.66,0,0,1-.74-4.84c0-2.77.19-5.54,0-8.31a55,55,0,0,0-1.06-8.09,50.81,50.81,0,0,0-2.71-8.85.69.69,0,0,0-1.31,0,27.23,27.23,0,0,0-1.23,13.19,49.48,49.48,0,0,0,3.87,13.08c1,2.44,2.23,4.79,3.48,7.13l.09.1a41.64,41.64,0,0,0,3.6,5.44l-1.1-.43.14,0-.35-.14a.77.77,0,0,0-.36-.07,39.09,39.09,0,0,1-6.52-4.22,36.1,36.1,0,0,1-4.24-4c-3.37-5.16-2.72-11.7-3.49-17.54a48.66,48.66,0,0,0-5.7-17.26,50.72,50.72,0,0,0-6-8.48c-.41-.48-1.07-.05-1.13.47-1.23,11.45,5.38,21.84,10,31.8q1.35,3,2.42,6l0-.05-.17-.25a218.26,218.26,0,0,0-13.63-19.28,78.09,78.09,0,0,0-16.55-15.51,54.34,54.34,0,0,0-11-5.74.59.59,0,0,0-.66.86c5.16,7,11.35,14.25,19.47,17.91a23.71,23.71,0,0,0,7,1.93c2.68,3.13,5.18,6.4,7.56,9.75.56.78,1.1,1.58,1.65,2.38-.56-.56-1.13-1.11-1.73-1.63a56.31,56.31,0,0,0-9.72-6.62,129,129,0,0,0-12.3-5.66c-.53-.23-.83.46-.66.86A23,23,0,0,0,90.53,256.4a18.7,18.7,0,0,0,6.11.11,34,34,0,0,1,2.76,2.87,63.11,63.11,0,0,1,3.95,5.39,53.55,53.55,0,0,0,5.07,6.49c-10.25-6.79-21.83-13-34.45-10.59a49,49,0,0,0-11.2,4.13c-.59.27-.31,1,.16,1.23,8.44,3.49,18,2.92,26.77,1.37,2.39-.43,4.74-1,7.11-1.54q2.66,1.25,5.21,2.67c3.36,1.89,6.62,3.94,9.87,6l.15.06a30.68,30.68,0,0,0,5.62,3.44l-.32,0-.66-.11-.6-.12h0a.54.54,0,0,0-.71-.11,26.46,26.46,0,0,0-5.48-.31,55.32,55.32,0,0,0-23.48,4.85A49.2,49.2,0,0,0,76.73,288a.66.66,0,0,0-.23.88,4.67,4.67,0,0,0,3.26,1.81,30.43,30.43,0,0,0,4.47.4,35.87,35.87,0,0,0,9.29-1,35.51,35.51,0,0,0,8.63-3.29c2.55-1.39,4.92-3.12,7.42-4.61a22.18,22.18,0,0,1,6.1-2.66,25.11,25.11,0,0,0,6.58,6.34c-.79-.36-1.58-.74-2.35-1.15a27.77,27.77,0,0,1-3.21-2.06.36.36,0,0,0-.2-.06.46.46,0,0,0-.31.13.42.42,0,0,0,0,.59,35.87,35.87,0,0,0,6,3.77c.85.43,1.71.81,2.58,1.18-5.42-.1-11,1.26-16.17,2.54-2.27.56-4.55,1.1-6.85,1.51s-4.68.74-7,1.09a50.79,50.79,0,0,0-12.52,3.16,21,21,0,0,0-9.79,8,.57.57,0,0,0,.34.83c4.76,1.34,9.67.25,14.09-1.72s8.53-5,12.81-7.5a34.27,34.27,0,0,1,7.53-3.41.52.52,0,0,0,.4-.47,110.94,110.94,0,0,1,12.58-2.71,32.66,32.66,0,0,1,7.78-.05l1.19.43c1.51.53,3,1,4.54,1.55l1.11.44a39.48,39.48,0,0,0-12.08,1.2,54.64,54.64,0,0,0-16.89,7.79,86.07,86.07,0,0,0-8.27,6.36.55.55,0,0,0,.24.91,41.07,41.07,0,0,0,18.83-1.66,100.67,100.67,0,0,0,17.65-8c2.7-1.46,5.51-3.13,8.6-3.54l4,1.46c3,1.34,6,2.72,9.12,3.9a49.66,49.66,0,0,0,4.92,1.62c-8.79,1.14-16.91,6.77-24.84,10.48a42.43,42.43,0,0,1-8.4,3,37.62,37.62,0,0,1-9.65.77c-6.29-.22-12.51-1.44-18.81-1.56s-12.57.78-17.72,4.39a.57.57,0,0,0,0,1,38.19,38.19,0,0,0,32.42,2.12,34.35,34.35,0,0,0,8.24-4.6.84.84,0,0,0,.18-.2c1-.06,2.09-.14,3.13-.29a35.22,35.22,0,0,0,8.66-2.44c5.43-2.24,10.42-5.38,15.73-7.88,4.33-2,9.14-3.73,14-3.9q7,2.67,14.08,5.29c5.42,2,10.93,3.89,16.32,6a40.11,40.11,0,0,1,7.43,5.68c.32.31.62.63.92.95l.63.76a49.54,49.54,0,0,1,6.06,10.61c.76,1.83,1.43,3.69,2,5.57a66.44,66.44,0,0,1,1.51,10.87,161.64,161.64,0,0,1-.75,22.65c-.62,7.37-1.12,14.86-3.23,22a29.4,29.4,0,0,1-4,8.62,25,25,0,0,1-6.8,6.33C192,412.11,185.31,415,179,418.26l-10.33,5.32c-3.21,1.65-6.42,3.45-9.93,4.36s-7.11.47-10.71.45A31.6,31.6,0,0,0,137.23,430c-3.72,1.28-7.27,3-11,4.28a75.11,75.11,0,0,1-11.56,2.87,177.14,177.14,0,0,1-24.56,2.05.82.82,0,0,0,0,1.64c7.54-.18,15.09-.22,22.59-1.16a87.86,87.86,0,0,0,10.67-2c3.7-1,7.2-2.34,10.78-3.65a32.06,32.06,0,0,1,10.56-2.39c2.83-.05,5.64.41,8.47.54a.78.78,0,0,0,.62.09l.27-.07c.66,0,1.32,0,2,0,3.89-.26,7.47-1.78,10.92-3.5l2.95-1.48c1-.36,2-.72,2.92-1.1a122,122,0,0,0,19.69-9.62c1.84-1.13,3.62-2.35,5.35-3.64a36.18,36.18,0,0,0,7.87-6.05,28.25,28.25,0,0,0,5.39-8.59c2.55-6.15,3.46-12.88,4.1-19.5.3-1.67.6-3.35.92-5,.36-1.94.66-3.88.86-5.84s.3-4.13.32-6.21a80.88,80.88,0,0,0-.75-11.21,68.22,68.22,0,0,0-1.2-9.78c1.69,3.94,3.2,7.95,4.76,11.95.51,1.33,1,2.66,1.57,4s1.06,2.59,1.56,3.9.92,2.56,1.3,3.86a25.18,25.18,0,0,1,.92,4.2,16.16,16.16,0,0,1-.18,3.74,41.38,41.38,0,0,1-1,4.12c-.4,1.41-.81,2.82-1.1,4.26s-.43,3.08-.59,4.63-.33,3.1-.6,4.63h0a39,39,0,0,1-1.23,5.1.31.31,0,0,0,.21.4.34.34,0,0,0,.4-.21,35,35,0,0,0,1.72-5.85c.43-2.05.75-4.11,1.1-6.17l0,.18a43.51,43.51,0,0,1,2.05-6.79,24.46,24.46,0,0,0,1.53-6.94,17.21,17.21,0,0,0-.37-3.85,35.21,35.21,0,0,0-1-3.8c-.27-.88-.58-1.74-.9-2.61l0-.14a25.77,25.77,0,0,0-1.08-3.61c-.85-2.32-1.94-4.56-2.92-6.84v0h0l0-.07a.5.5,0,0,1,0-.13s0,.05,0,.07c-.44-1.08-.83-2.17-1.25-3.25s-.93-2.27-1.42-3.39c-.18-.39-.37-.76-.54-1.14s-.27-.67-.41-1c-1-2.43-2.12-4.83-3.32-7.17-.59-1.16-1.21-2.33-1.88-3.44a31.63,31.63,0,0,0-2.16-3.09c-.51-.66-1-1.29-1.6-1.91a39.14,39.14,0,0,0-3.78-5,33.16,33.16,0,0,1,11.1,10.14.8.8,0,0,0,1.39-.81c-3-5.73-8.21-9.77-13.77-12.85-1.9-1.06-3.85-2-5.83-2.89l-.17-.21a.34.34,0,0,0-.28-.13h0a43.35,43.35,0,0,0-6.56-4,76.58,76.58,0,0,0-14.31-5.22c-1.69-.73-3.37-1.48-5-2.28a105.06,105.06,0,0,1-13.84-8.41c-.49-.33-1.12.46-.64.84A107.23,107.23,0,0,0,167.68,301l-1.4-.32c-10.21-3.79-20.44-7.53-30.65-11.33-6.55-2.44-13.23-5.19-18.24-10.16.23,0,.47,0,.71,0q2.64.38,5.24,1a141.48,141.48,0,0,0,14.23,4.35c3.07.79,6.15,1.51,9.23,2.25s6.21,1.65,9.28,2.62c6.07,1.92,12,4.18,18.12,6.07,2.44.76,4.9,1.48,7.4,2,1.34.31,2.69.56,4.05.79a94.49,94.49,0,0,0,11.25,1.29,41.16,41.16,0,0,0,5.09,0c.29,0,.59.05.88.09a17.52,17.52,0,0,1,4.14,1.13,12,12,0,0,1,1.14.56,10.27,10.27,0,0,1,1,.69l-.05,0a.18.18,0,0,0,.07.05l.06.05,0,0,.21.19c.25.3.51.59.74.9s.49.78.74,1.16.56.9.82,1.35c.52.89,1,1.8,1.43,2.73.86,1.8,1.61,3.66,2.39,5.5,1,2.44,2,4.9,3.06,7.34.51,1.21,1,2.43,1.6,3.63s1.08,2.34,1.73,3.45,1.35,2.13,2.06,3.17,1.48,2.11,2.23,3.16a27.42,27.42,0,0,1,2.87,4.84.42.42,0,0,0,.73-.4,37.05,37.05,0,0,0-1.85-3.53c-.71-1.2-1.44-2.39-2.19-3.56s-1.43-2.29-2-3.5c-.3-.6-.58-1.22-.85-1.84s-.57-1.38-.84-2.07c-.92-2.45-1.73-4.94-2.59-7.41-.42-1.2-.86-2.39-1.33-3.56l1.52,1.77c1.45,1.67,2.91,3.32,4.37,5,2.79,3.19,5.59,6.37,8.2,9.72l0,0c1.83,2.38,3.58,4.81,5.19,7.35a59.52,59.52,0,0,1,3,5.29c.49,1.19,1,2.39,1.43,3.6a61.06,61.06,0,0,1,3.09,13.15c1.28,11.12.3,22.26-.76,33.36-.08.9,1.28.86,1.39,0,1.17-8.84,2.34-17.76,2-26.68a41.62,41.62,0,0,0-.46-5.89c-.14-1-.34-2-.56-3-.15-.75-.3-1.5-.47-2.24a.44.44,0,0,0,0-.2c-.22-.94-.44-1.87-.68-2.8l-.54-2.25c.41.48.82.94,1.25,1.39.17.52.36,1,.52,1.57,2.29,7.51,3.19,15.26,3.87,23.06,0,.54.09,1.07.14,1.6-.16,1.1-.33,2.19-.51,3.28q-1.85,11.73-3.48,23.48v.05a34.82,34.82,0,0,0-.51,3.65c-.54,4-1.09,8.07-1.62,12.11a52.21,52.21,0,0,1-2.43,11.42c-2.16,5.79-6.83,10.09-12.08,13.12-6.2,3.58-13.42,5.37-20.31,7.09a1.09,1.09,0,0,0,.58,2.1,100.37,100.37,0,0,0,18.74-6.71c5.65-2.83,10.94-6.36,14.58-11.65a30.2,30.2,0,0,0,4.47-12,71.14,71.14,0,0,0,2.7,7.08,48.2,48.2,0,0,0,3.42,6.07c1.2,1.91,2.32,3.86,3.53,5.76,2.41,3.75,4.71,8.21,8.56,10.7.81.52,1.82-.73,1.05-1.37-3.18-2.62-5.13-5.95-7-9.59-1-1.94-2-3.86-2.93-5.83s-1.64-4.08-2.52-6.1c-2.88-6.61-5.17-13.4-5.06-20.56q.54-4.1,1-8.19c.45-2.27.94-4.53,1.31-6.81,1,7.8,2.63,15.47,6,22.6a43.38,43.38,0,0,0,5.58,9.18,45.62,45.62,0,0,0,5.24,5.34l2.56,2.87c1.85,2.05,3.72,4.08,5.73,6a49,49,0,0,0,6.51,5,31.74,31.74,0,0,0,7.37,3.62c5.55,1.86,11.51,2.17,17.27,2.93a74.49,74.49,0,0,1,16.27,4.29c10.16,3.77,20.37,8.89,31.49,8.31a29.14,29.14,0,0,0,3.95-.46c.58-.11.46-1.11-.15-1.05a36.53,36.53,0,0,1-8-.11,53,53,0,0,1-7.77-1.67c-5.21-1.46-10.23-3.49-15.27-5.44a93.56,93.56,0,0,0-15.5-4.88c-5.69-1.13-11.52-1.2-17.22-2.25a34.12,34.12,0,0,1-8.09-2.42,26.33,26.33,0,0,1-6.61-4.39,110.21,110.21,0,0,1-8.75-8.94.8.8,0,0,0-.22-.61c-9.39-9.68-14.17-22.87-15.92-36.06a105.39,105.39,0,0,1-.62-20.17c0-.8.12-1.62.2-2.46,1.67-10.07,1.38-20.38-3.32-29.76-.29-.57-1.27-.17-1,.44a44,44,0,0,1,2.37,11.26c-.33-.44-.68-.86-1-1.28-2.24-5.56-6.18-10.71-10-15.27-.65-1-1.32-2.06-2-3.07,0-.14-.07-.27-.12-.4-2.75-8.74-6-17.49-6.78-26.69-.44-5-.09-10.07-.13-15.1A53.05,53.05,0,0,0,232.45,280a46.56,46.56,0,0,0-4.9-11.43s0-.05,0-.07a16.76,16.76,0,0,0-1-2.26,33.08,33.08,0,0,0-2.63-4.29c-1-1.37-2.06-2.68-3.16-4s-2.18-2.45-3.19-3.75a40.74,40.74,0,0,1-2.72-4.08l-.08-.15a42.07,42.07,0,0,1-3.15-7.82c-1.86-6.59-1.35-13.5-1.67-20.26a77.42,77.42,0,0,0-9.61-33.76c-.43-.76-.87-1.52-1.32-2.27l-.62-1.21c-1.34-2.5-2.84-4.92-4.4-7.29-1.72-2.64-3.52-5.23-5.3-7.84-.24-.42-.48-.84-.71-1.28-.5-1-1-2-1.38-3a51.56,51.56,0,0,0,3.33,4.86c2.33,3.07,4.64,6.12,6.71,9.37A155.07,155.07,0,0,1,207.46,200c1.82,4.05,3.59,8.13,5.25,12.26.16.39.79.22.64-.18-2.81-7.24-5.54-14.51-8.95-21.5a118.69,118.69,0,0,0-10.92-18.23c3.36,3.58,7,6.9,10.07,10.74l.31.39a54.6,54.6,0,0,1,3.26,4.84c1.16,1.89,2.23,3.83,3.25,5.79,1.19,2.28,2.28,4.6,3.33,6.94.18.57.37,1.13.53,1.7a101.31,101.31,0,0,1,2.49,11.82c1.25,8,2.08,16.18,4.68,23.91A67,67,0,0,0,224,245a137.64,137.64,0,0,0,7.49,17.31c2.11,4.11,4.31,8.19,6.1,12.46a63.29,63.29,0,0,1,4,13.54c1.66,9.28,1.55,18.78,3.21,28.06,1.61,8.92,4.83,17.82,11.66,24.07a.59.59,0,0,0,.83-.83c-12.17-13.32-9.73-32.93-11.82-49.46a61.78,61.78,0,0,0-3.08-13.78,111.69,111.69,0,0,0-5.66-12.46c-2.09-4.08-4.23-8.13-6-12.34A121.18,121.18,0,0,1,226,238.35c-1.53-5.1-2.74-10.28-3.91-15.47-.32-1.44-.68-2.85-1.05-4.27.54,1.3,1.08,2.6,1.66,3.88a157.61,157.61,0,0,0,7.86,14.74c1.76,3,3.55,6,5.25,9.11s3.31,6.29,4.71,9.55c.29.7.56,1.4.83,2.1.4,1.17.81,2.34,1.18,3.52s.67,2.17.95,3.27a32.55,32.55,0,0,1,.65,3.41l.09.8a.45.45,0,1,0,.89,0,39.45,39.45,0,0,0-.49-5c-.26-1.68-.65-3.33-1-5s-.8-3.16-1.2-4.73a47.25,47.25,0,0,1-1.05-5.11A42.59,42.59,0,0,1,241,242c.09-2.45.36-4.89.65-7.32s.62-4.89.86-7.35.5-4.67.81-7c.63-4.59,1.4-9.15,2.25-13.7.86,8.59,3.67,17,5,25.63-.17,5.8-.18,11.6-.32,17.39,0,1.64-.08,3.28-.1,4.91-.17,1.6-.33,3.19-.46,4.79a96.81,96.81,0,0,0,1.25,23.55,214,214,0,0,0,5.54,22.94c.13.77.28,1.53.4,2.3,1.17,7.5,2.32,15,3.79,22.45a.69.69,0,0,0,1.36-.18c-.43-6.77-1.11-13.5-1.81-20.25a129.94,129.94,0,0,0-3.09-19c-.8-3.13-1.65-6.26-2.21-9.45a55.31,55.31,0,0,1-.71-6.66c1.63,4.81,3.72,9.51,5.65,14.21a98.72,98.72,0,0,1,4.65,14,82.43,82.43,0,0,1,2.2,14.9,89.77,89.77,0,0,1-.7,17c-.13.92,1.25,1.35,1.43.4a77.49,77.49,0,0,0-.57-30.23A83.06,83.06,0,0,0,262.29,291c-1.87-4.49-4-8.86-5.86-13.35-.91-2.2-1.75-4.43-2.45-6.69-.23-4.91-.22-9.83-.3-14.75.68-5.89,1.65-11.77,1.36-17.71-.34-7-2.49-13.83-4.65-20.48l-.27-.82c0-.07,0-.14,0-.21A101.4,101.4,0,0,1,248,197c0-1.15,0-2.3.08-3.46,1.06-5.3,2.1-10.6,3-15.93.86-5,1.59-10.09,2.09-15.18.08-.92.15-1.84.23-2.76.49,7.37.87,14.74,1,22.14q.17,9.51.05,19a.34.34,0,0,0,.67,0c.44-11.21.26-22.4.32-33.62A322.48,322.48,0,0,0,254,134.45a54.91,54.91,0,0,1,2.87,12.79c.26,3.89.4,7.79.49,11.69.05,1.85.07,3.7.11,5.55,0,5.24-.05,10.47.21,15.7a87.49,87.49,0,0,0,1.41,12.4c.4,2.1.9,4.18,1.4,6.26.89,5.21,1.83,10.41,2.54,15.64.39,3,.7,5.9.9,8.86,0,3-.07,6-.2,9.1,0,.86-.07,1.72-.11,2.58a.22.22,0,0,1,0,.08c-.31,2.27-.75,4.52-1.23,6.76,0-1.32-.1-2.64-.18-4a120.57,120.57,0,0,0-2.82-19.55c-.82-3.65-1.74-7.26-2.85-10.83a.22.22,0,0,0-.42.11,144.32,144.32,0,0,1,3.3,19.46,184.53,184.53,0,0,1,1,19.52c0,1.37,0,2.75,0,4.13,0,.07,0,.14,0,.21-.16.92-.28,1.85-.38,2.78a53.89,53.89,0,0,0,.06,10c.13,1.67.29,3.34.48,5s.4,3.42.57,5.14a.52.52,0,0,0,.52.52.54.54,0,0,0,.53-.52c.11-1.71.16-3.42.15-5.14s-.08-3.49-.12-5.24a73.24,73.24,0,0,1,.31-9.37c.64,2.67,1.34,5.33,2.2,7.94l.34,1c.08.69.17,1.38.3,2.06a1.64,1.64,0,0,0,.8,1.09l.48,1.35c0,.2.06.41.08.62a1,1,0,0,0,0,.51c.09.48.19,1,.29,1.44l.06.42a5,5,0,0,0,.17,1.1,2.87,2.87,0,0,0,.17.44c.34,1.64.68,3.28,1,4.93a46.56,46.56,0,0,0,.61,4.85,18.77,18.77,0,0,0,1.62,5.78l0,0a1,1,0,0,0,1.9-.51,12.78,12.78,0,0,0-.22-2.82c-.12-.95-.18-1.9-.28-2.84-.17-1.75-.35-3.5-.47-5.25a51.35,51.35,0,0,1,.14-8.94h0a30.28,30.28,0,0,1,1.24-3.62c2-4.61,4.85-8.76,7.39-13.07a60.09,60.09,0,0,0,3.49-6.71c.56-1.28,1-2.6,1.53-3.9s1.1-2.78,1.68-4.16c.3-.69.61-1.38.91-2.06,1.87-3.17,3.64-6.39,5.26-9.71a102.31,102.31,0,0,0,6.12-15.61c.49-1.22,1-2.45,1.41-3.7s.84-2.62,1.19-4c1.42-5.43,2.11-11,3-16.53.22-1.34.44-2.7.69-4,.15-.49.28-1,.44-1.48A36,36,0,0,1,314,165a47.72,47.72,0,0,0-5.41,15c-1.7,6.05-2.73,12.26-3.82,18.44-.41,2.35-.83,4.7-1.3,7.05-1.11,4.24-2.36,8.44-3.81,12.58-2.58,7.39-5.85,14.49-9,21.67-1.31,3-2.58,6-3.73,9.12a104,104,0,0,0-4.84,13.62,58.09,58.09,0,0,0-1.79,9.43,57.25,57.25,0,0,0-.29,6.67c-.41,4.13-.62,8.28-.62,12.41,0,5.73.56,11.41.83,17.12.07,1.61.1,3.23.07,4.84-2.19,6.17-3.14,12.82-4.27,19.25a32.58,32.58,0,0,0-1,5.84c-.08.47-.15.95-.23,1.43-.64,2.05-1.31,4.09-2.05,6.11a108.52,108.52,0,0,1-7.27,15.71.83.83,0,0,0,1.44.84,105,105,0,0,0,5.9-11.7,120.78,120.78,0,0,0,6.44,55,64.39,64.39,0,0,0,9.08,17.39,38.94,38.94,0,0,0,7.14,7.2,27.45,27.45,0,0,0,8.66,4.71,47.28,47.28,0,0,0,18.27,9.49,123.7,123.7,0,0,0,16.28,3.35c2.76.41,5.54.73,8.27,1.27,2.55.51,5.07,1.22,7.57,1.89,5.77,1.54,11.57,3.1,17.55,3.55,5.63.42,11.71.28,17.06-1.71.8-.3.48-1.56-.36-1.3a34.2,34.2,0,0,1-15.36,1.41,145.59,145.59,0,0,1-14.74-3.09c-5.1-1.26-10.22-2.49-15.28-3.9s-10.19-2.34-15.25-3.67c-8.76-2.31-17.81-5.87-24-12.76-3.33-3.69-5.71-8.13-8.18-12.41-1.24-2.15-2.58-4.22-3.7-6.43s-2.2-4.67-3.21-7c-4.42-10.44-7.54-21.47-7.63-32.88a.63.63,0,0,0-1.25,0,80.61,80.61,0,0,0,5.41,30.28c1.83,4.92,4.29,9.57,6.15,14.47a63,63,0,0,0,3.29,6.83,60.11,60.11,0,0,0,4.07,7,29.82,29.82,0,0,0,2,2.56,32.74,32.74,0,0,1-3.74-2.48A41,41,0,0,1,291,423.1a58.65,58.65,0,0,1-9.3-16.45c-.82-2.11-1.56-4.26-2.25-6.42a.61.61,0,0,0,.15-.71c-4.86-13.35-5.13-27.59-3.8-41.59.66-7,1.78-14,3-20.92,1.26-7.12,2.22-14.37,4.11-21.36a58.66,58.66,0,0,1,5-12.13c0,.08,0,.15,0,.23,0,.23,0,.46,0,.7a6.14,6.14,0,0,0,.12,1,31.76,31.76,0,0,1-2.94,10.3,1.25,1.25,0,0,0,2.16,1.27c3.4-5.56,3.82-12.06,4.93-18.31a10.06,10.06,0,0,1,.92-.81,18.65,18.65,0,0,1,3.81-2.17,38.15,38.15,0,0,1,6.24-1.93c1.94-.45,3.92-.78,5.89-1.05,1.74-.23,3.48-.43,5.23-.58s3.26-.25,4.9-.33c-1.36.29-2.71.63-4,1.05-6.46,2-12.59,5.75-15.81,11.93a.76.76,0,0,0,1.31.76c3.22-5.31,8.74-8.6,14.55-10.45,6.71-2.13,13.71-2.19,20.68-2.67a77.76,77.76,0,0,0,11.47-1.49,55.56,55.56,0,0,0,9.45-3.18,49.27,49.27,0,0,0,6-2.55c.59-.3,1.16-.61,1.74-.93l1.08-.55a64.85,64.85,0,0,1,10.43-4,34.81,34.81,0,0,1,11.95-.86c1,.08,2,.16,3,.21l-3.65,1.41a.68.68,0,0,0-.4-.12l-.16,0A80.11,80.11,0,0,0,370.51,286c-5.25,2.37-10.36,5-15.57,7.46-1.66.77-3.32,1.52-5,2.24l-.08,0-.08,0,.07,0-.12,0,0,0c-2.48,1-5,2-7.57,2.78-2,.63-4.07,1.18-6.12,1.69-4.26,1.08-8.56,2-12.83,3.09a88.84,88.84,0,0,0-12.51,4,49.38,49.38,0,0,0-5.93,2.92,35.86,35.86,0,0,0-5.3,3.77,29.49,29.49,0,0,0-7.85,10.52c-.59,1.33-1.11,2.68-1.65,4s-1.13,2.83-1.67,4.24a85.6,85.6,0,0,0-2.9,8.81,53.85,53.85,0,0,0-1.42,7.56,33,33,0,0,0-.1,7.3,1.23,1.23,0,0,0,.35.85,1.2,1.2,0,0,0,2-.85c0-1.24.05-2.47.13-3.71s.21-2.54.37-3.81a84.19,84.19,0,0,1,2.05-10.06,76.64,76.64,0,0,1,2.73-8.34,38.91,38.91,0,0,0-.28,3.89c-.16,1.11-.28,2.22-.37,3.31-.5,6.31-.51,12.68-.52,19,0,5,.05,10,.31,15-.07,1.81-.13,3.63-.14,5.44q0,3.48.24,6.93a54,54,0,0,0,.92,6.82,35.77,35.77,0,0,0,2.35,7.42,26.76,26.76,0,0,0,1.77,3.29,25.84,25.84,0,0,0,1.7,2.38,31.64,31.64,0,0,0,2.84,4.3,29.5,29.5,0,0,0,3.12,3.39c.48.64,1,1.28,1.46,1.9a44.12,44.12,0,0,0,3.08,3.47,25.7,25.7,0,0,0,3.53,3,44.19,44.19,0,0,0,9,4.66c1.24.51,2.49,1,3.74,1.45,1.63.95,3.29,1.87,5,2.71a63.59,63.59,0,0,0,8.23,3.34c.91.49,1.83.94,2.79,1.34a13.24,13.24,0,0,0,2.37.73,51,51,0,0,0,13.29,3.18c7.13.66,14.32,0,21.46.43s14.29,1.26,21.42,1.94c4.09.39,8.19.65,12.27,1.15s8.17,1,12.28,1.34a.4.4,0,0,0,.1-.78c-3.56-.66-7.15-1.15-10.73-1.66s-7.13-1.15-10.7-1.76c-6.92-1.17-13.84-2.37-20.79-3.35a100,100,0,0,0-10.64-1c-3.51-.12-7,.07-10.52,0a58.41,58.41,0,0,1-6.62-.45L352,433a92.84,92.84,0,0,1-16.48-5,96.86,96.86,0,0,1-15.39-8.41c-4.64-3-9.5-6-13.56-9.8-7.87-7.34-10.22-18.12-11.42-28.4-.39-3.35-.68-6.69-.9-10,.1-2.45.23-4.89.31-7.32.07-1.84.11-3.67.1-5.51h.08a.34.34,0,0,0,.23-.4c-.13-.67-.25-1.35-.37-2,0-1-.1-2.06-.19-3.09-.05-.54-.12-1.08-.19-1.62,0-.88-.09-1.76-.16-2.64s-.15-1.55-.25-2.33,0-1.43.05-2.14a112.77,112.77,0,0,1,.61-11.31,35.77,35.77,0,0,1,1.86-5.9,30.87,30.87,0,0,1,3.9-6.69,32.84,32.84,0,0,1,3.31-3.66c.65-.62,1.32-1.2,2-1.78s1.53-1.24,2.31-1.85,1.87-1.37,2.85-2c.27-.17.55-.32.83-.48a73.65,73.65,0,0,1,15.3-5.35c1.61-.07,3.22-.08,4.81,0,2.42.06,4.84.21,7.25.4,6.22,1.07,12,4.26,17.8,6.6a36.44,36.44,0,0,0,11.08,2.86c4.22.29,8.34-.72,12.36-1.9,4.64-1.36,9.33-2.85,14.23-2.59.86,0,1-1.25.2-1.48-13-3.72-26.39-6.65-39.89-7.45a103.47,103.47,0,0,0-14.73.17c1-.3,2.07-.6,3.09-.93l.78-.26a142,142,0,0,1,27.89-.33,135.59,135.59,0,0,1,14.59,2.1.73.73,0,0,0,.49.59l7.36,2.59c2.64,1.76,4.87,4.24,7.21,6.33a22.54,22.54,0,0,0,6.17,4.13,18.93,18.93,0,0,0,16-.65.69.69,0,0,0,0-1.19,116.12,116.12,0,0,0-15.83-7.17A132.93,132.93,0,0,0,391,302a129.75,129.75,0,0,0-34.58-3.33c-3.06.13-6.12.38-9.16.73,1.25-.48,2.48-1,3.7-1.54,4.7-2.09,9.2-4.59,13.73-7,7.21-1.82,15.17,1.46,21.81,4.19a64.67,64.67,0,0,0,13.73,4.27,50.65,50.65,0,0,0,13.91.42,51.53,51.53,0,0,0,15.16-4.07c.56-.25.31-1-.15-1.17-6.16-2.28-12.69-4.53-19.35-4.12a98.84,98.84,0,0,0-9.83,1.51,41.62,41.62,0,0,1-10.46.32,105.64,105.64,0,0,1-11.72-1.93.55.55,0,0,0-.56.21,33,33,0,0,0-3.61-.75,24.94,24.94,0,0,0-6.63-.11c3-1.58,6.06-3.11,9.19-4.45a60.14,60.14,0,0,1,10.94-3.52.64.64,0,0,0,.42-.38l2.56-.87a.52.52,0,0,0,.74.21c5.44-3,11.77-.8,17.42.28a29.93,29.93,0,0,0,8.86.41c3-.32,5.91-1,8.85-1.51a33.42,33.42,0,0,1,10.12-.57.69.69,0,0,0,.48-1.17c-5.23-4.41-12.1-6.07-18.83-6-7.63.11-14.92,2.51-22,5.16l-.19.07a44.24,44.24,0,0,1-7.32-.5c-.88-.1-1.76-.2-2.64-.27a.46.46,0,0,0-.3-.13h-.1l-.38.07a31.74,31.74,0,0,0-7.28.28c-6.9,1.13-13.15,4.63-19.42,7.52a67.44,67.44,0,0,1-7.3,2.94c-1.45.29-2.91.54-4.37.74h.05c-8.82,1.17-17.73.9-26.61,1.32l.07,0a39.66,39.66,0,0,0,13.6-6.93c2.32-1.72,4.53-3.58,6.71-5.47.41-.35.05-1-.41-1a30.8,30.8,0,0,0-16.46,3.63c-4.45,2.41-8.24,5.85-12.62,8.36a22.2,22.2,0,0,1-7.79,2.83.21.21,0,0,0-.17.14l-.46.07c.3-.23.61-.47.9-.71a46.59,46.59,0,0,0,4.62-4.7c1.58-1.75,3.14-3.53,4.7-5.29a.56.56,0,0,0-.54-.93,32.84,32.84,0,0,0-10,4.59,36.91,36.91,0,0,0-6,4.89c.46-.66.94-1.32,1.43-2a34.34,34.34,0,0,1,3.22-3.6,40.24,40.24,0,0,1,3.13-2.71,63.18,63.18,0,0,1,8.82-5.56c1.26-.58,2.52-1.15,3.76-1.7,3.12-1.39,6.3-2.77,9.39-4.31a31.23,31.23,0,0,1,13.35,2.38c7.49,2.87,14.64,7.28,22.9,7.31A17,17,0,0,0,373.14,275a.42.42,0,0,0-.19-.7c-.42-.08-.84-.17-1.26-.28a.33.33,0,0,0-.39-.27l-.39,0a41.68,41.68,0,0,1-7.27-3.43,55,55,0,0,0-9.05-4.19,42.45,42.45,0,0,0-19.35-1.68c-.81.12-1.61.27-2.41.43A38.24,38.24,0,0,0,337.7,261c.63-.3,1.27-.58,1.91-.85.29-.07.59-.12.89-.17a.48.48,0,0,0,.56.29c.76-.16,1.53-.32,2.3-.46a34.84,34.84,0,0,1,10.51,2.2c3.59,1.23,7.12,2.66,10.77,3.69A32.55,32.55,0,0,0,375.78,267a28.28,28.28,0,0,0,12.09-3.62.45.45,0,0,0-.1-.82c-4.25-1.6-8.36-3.52-12.7-4.89a54.59,54.59,0,0,0-12.4-2.51,50.79,50.79,0,0,0-22.86,3.69,38.13,38.13,0,0,0,5.62-8.56c4-1.61,8.62-1.79,12.91-1.73a95.92,95.92,0,0,0,10.59-.09,33.24,33.24,0,0,0,9.54-2.58c3.24-1.34,6.73-3,10.33-2.88a.59.59,0,0,0,.29-1.09c-6.26-3.19-13.76-3.37-20.62-2.9s-14.18,1.59-19.9,5.76c-.37.27-.73.55-1.09.84,1.28-3.26,2.34-6.63,3.34-9.94.18-.59.35-1.18.53-1.78l.43-1c1.06-2.47,2.15-4.92,3.29-7.35a.48.48,0,0,0,.39-.08c3.66-.12,6.67,2.3,9.66,4.09a22.47,22.47,0,0,0,11.4,3.21,43.88,43.88,0,0,1,7.43.31.61.61,0,0,0,.69-.89A20.71,20.71,0,0,0,374.49,222a21.15,21.15,0,0,0-4.77-1.49c1.12.12,2.23.31,3.33.54a77,77,0,0,1,14.77,5.3c3.32,3.29,4.39,7.89,5.12,12.44a.57.57,0,0,0,0,.51l.12.29c.14.85.26,1.69.39,2.52,1.1,7.21,2.9,14.62,7.26,20.61a24.39,24.39,0,0,0,8.22,7.26.62.62,0,0,0,.91-.53c-.28-5.31-.58-10.9-3-15.76-2.08-4.25-5.92-7.28-9.07-10.7a14.24,14.24,0,0,1-3.77-6.35.42.42,0,0,0-.31-.34,31.38,31.38,0,0,0-.9-3.46,15.83,15.83,0,0,0-3.07-5.63l5.59,2.53c1.81,2.76,3.77,5.43,5.69,8.11,2.11,2.95,4.2,5.93,6.49,8.75a43.38,43.38,0,0,0,15.59,12.3,39.31,39.31,0,0,0,10.4,3.09.56.56,0,0,0,.54-.92,97.08,97.08,0,0,0-10.66-10.61,36.18,36.18,0,0,0-6.21-4c-2.05-1-4.23-1.76-6.36-2.62a20.63,20.63,0,0,1-3.76-1.88,16.9,16.9,0,0,0-3.63-3.38.46.46,0,0,0-.45,0l-.5-.68c-1.8-2.45-3.58-4.95-5.45-7.36,7.81,3.47,15.77,6.63,24.32,7.56a41.85,41.85,0,0,0,9.36,0,38.25,38.25,0,0,0,9.07-2.25C440.21,235.66,440.41,235,439.92,234.75ZM418.31,213.1c-4.25,4.08-10,5.4-15.75,5.38a51.1,51.1,0,0,1-6.18-.47,44.63,44.63,0,0,0,11.3-3.68,46.75,46.75,0,0,0,6.91-4.19c2.09-1.52,4.13-3.12,6.34-4.47a18.75,18.75,0,0,1,6.13-2.52C423.81,206.12,421.51,210,418.31,213.1ZM413,206.53a43.78,43.78,0,0,1,12.65-3.86c-3.67,1-6.94,3.38-10,5.56a64.69,64.69,0,0,1-6.69,4.26,45.84,45.84,0,0,1-7.78,3.29,48.11,48.11,0,0,1-5.56,1.4,40.75,40.75,0,0,0,4.25-2.33C404.2,212.09,408.23,208.79,413,206.53Zm-13.12-34.34a48.3,48.3,0,0,1,7.25-18.82,39,39,0,0,1,3.79-5c-.17,1.89-.28,3.78-.55,5.66A58.56,58.56,0,0,1,408.9,161,37.91,37.91,0,0,1,403,173.55a32.76,32.76,0,0,1-3.77,4.21v-.06c.73-.82,1.39-1.73,2-2.61a33.68,33.68,0,0,0,2.11-3.31c.44-.77-.78-1.48-1.19-.69-.59,1.14-1.24,2.25-1.92,3.34-.27.42-.55.82-.84,1.22C399.54,174.5,399.65,173.34,399.83,172.19Zm-1.5-29.08a28.11,28.11,0,0,1,7.41-9.05,32.43,32.43,0,0,1-6.07,19.77,31.86,31.86,0,0,1-2.39,2.91c-.26.17-.51.33-.76.52-.53.41-1.07.82-1.58,1.26s-.93.88-1.4,1.32l-.46.44C394.06,154.33,395.46,148.46,398.33,143.11Zm-19.25,22.35a31,31,0,0,1,7.28-12.12c1.39,8.9-1.82,17.81-6.38,25.35l-.51.8a61.37,61.37,0,0,0,4.73-19.39c0-.3-.43-.29-.47,0a65.93,65.93,0,0,1-6.94,22.59c.1-.84.18-1.68.25-2.53C377.44,175.23,377.58,170.22,379.08,165.46Zm12.33-25.89a15.2,15.2,0,0,1-8.6,8.52c-4.32,1.64-9,1.25-13.53,1.91,1.32-.54,2.68-1,4-1.45A85.45,85.45,0,0,1,384,145.78c.31-.06.17-.51-.13-.46a78.71,78.71,0,0,0-11.26,2.44,29.31,29.31,0,0,0-7.71,3.33l-.53.23c3.75-3,8.23-4.64,12.83-6C382.11,143.9,387.22,142.58,391.41,139.57Zm-30.81,29.3a33.39,33.39,0,0,1,6-10.17,24.16,24.16,0,0,1,.78,17.23c-1.27,3.77-3.34,7.18-5.13,10.73a.5.5,0,0,0,0-.12c.89-4.76,2.14-9.42,3.25-14.14a23.39,23.39,0,0,0,.69-7.9c0-.35-.57-.36-.55,0,.35,4.86-1.61,9.59-2.84,14.22a127.94,127.94,0,0,0-2.64,12.71c-.22.61-.4,1.24-.56,1.87a127.94,127.94,0,0,1-1.05-13.11A33.12,33.12,0,0,1,360.6,168.87Zm26.53-49.56a28.54,28.54,0,0,1,6.53.24,31.79,31.79,0,0,1-9.62,6.36,58.76,58.76,0,0,1-12.25,3.73c-1.13.23-2.26.44-3.39.64a114.31,114.31,0,0,0,16-7c.5-.27.06-1-.44-.76a119.11,119.11,0,0,1-17.67,7.45A30.63,30.63,0,0,1,387.13,119.31Zm-40,3.33-.51.48.58-.87s0,0,0,0A.63.63,0,0,0,347.14,122.64Zm20.13-9.49A48.83,48.83,0,0,1,379,111.48c-3.48,3.72-7.16,7.43-11.88,9.53-4.9,2.17-10.39,1.9-15.6,2.66a24.44,24.44,0,0,0-4,.91,13.94,13.94,0,0,1,2.11-1.8,28.49,28.49,0,0,1,5.7-2.2c2-.66,4-1.26,6-1.82s4.14-1,6.2-1.54c.45-.12.38-.91-.11-.84a53.6,53.6,0,0,0-6.14,1.3c-2.07.53-4.11,1.16-6.12,1.85a43.35,43.35,0,0,0-4.59,1.76A49,49,0,0,1,367.27,113.15Zm-20.18-6.24a22.53,22.53,0,0,1,1.4-7.88,26.79,26.79,0,0,1,4.1-6.93,14.31,14.31,0,0,0,2.58-4.64,26.65,26.65,0,0,1,1,5.84,33.21,33.21,0,0,1-.74,8.67,47.1,47.1,0,0,1-3.94,11c.38-1.39.73-2.8,1-4.23.38-2,.64-3.94.83-5.93a16.3,16.3,0,0,0-.22-6,.37.37,0,0,0-.71.2,16.09,16.09,0,0,1,0,5.91c-.25,2-.62,3.92-1.06,5.85a70.37,70.37,0,0,1-2.41,8.18c-.1-.61-.23-1.23-.38-1.82A35.8,35.8,0,0,1,347.09,106.91Zm15.35,31.22a31.51,31.51,0,0,1,6,2.49c-3.11.11-6.15,1-9.22,1.53a18.42,18.42,0,0,1-5.88.07,25.92,25.92,0,0,1-5.46-1.6c-1.49-.59-2.93-1.3-4.35-2a40.33,40.33,0,0,1,13.78,1.25.27.27,0,0,0,.15-.52,41.1,41.1,0,0,0-11.59-1.9A34.23,34.23,0,0,1,362.44,138.13Zm-23,.41-1,.44c.31-.17.62-.34.94-.5A.14.14,0,0,0,339.45,138.54Zm-7.58-17.64a23.92,23.92,0,0,1,2.68-6.49,55.24,55.24,0,0,1,3.39-5.07,89.59,89.59,0,0,1-1.46,20.56c-.35,1.69-.79,3.37-1.3,5a105.3,105.3,0,0,0,.92-13,.49.49,0,0,0-1,0,111.85,111.85,0,0,1-1.51,14.85c-.09-.5-.18-1-.29-1.5-.52-2.38-1.19-4.73-1.59-7.14A18.32,18.32,0,0,1,331.87,120.9Zm-2.31-30.72a32.39,32.39,0,0,1,10-7.26,34.38,34.38,0,0,1,5.69-2c-1.7,5.9-5,11.8-10.29,15a35.4,35.4,0,0,1-9,3.58,41.07,41.07,0,0,0,5.81-4.14,54.93,54.93,0,0,0,7.48-7.69c.27-.33-.2-.82-.48-.48a43,43,0,0,1-7.61,7.22,71.19,71.19,0,0,1-7.48,4.65A33.25,33.25,0,0,1,329.56,90.18ZM285.64,64.07a22.56,22.56,0,0,1,.85-4.45,20.07,20.07,0,0,1,6,16.56,16.7,16.7,0,0,1-.67,3.06L291.57,78c-.59-3.31-1.19-6.61-1.77-9.93-.07-.43-.71-.24-.65.18.42,3.09.81,6.18,1.22,9.26.12.87.24,1.73.37,2.6A22.36,22.36,0,0,1,285.64,64.07Zm16.53,33.27a33.31,33.31,0,0,1-2.51-6.48,42.41,42.41,0,0,1-1.14-7.09c-.18-2.22-.29-4.48-.27-6.71a23.19,23.19,0,0,1,6.78,9A34.29,34.29,0,0,1,307.57,98a41.8,41.8,0,0,0-4.68-12.82c-.21-.38-.79,0-.59.34a37.89,37.89,0,0,1,3.87,11.12,40.2,40.2,0,0,1,.55,9.29l-.15-.18C305.21,102.88,303.57,100.17,302.17,97.34Zm-18.55-2.16a54,54,0,0,1,2-10.83,36.87,36.87,0,0,1,5.4,21.73c-.05.88-.14,1.76-.26,2.64-.59-2.11-1.2-4.21-1.74-6.33-.87-3.38-1.52-6.83-2.05-10.28-.05-.33-.64-.26-.6.08.37,3.49.9,7,1.48,10.4a72.35,72.35,0,0,0,1.92,8.68,27.74,27.74,0,0,1-4.16-5.71A20,20,0,0,1,283.62,95.18Zm25.88,28.44a35.72,35.72,0,0,1,2.9-7.91,25.35,25.35,0,0,1,4.54-6,24.9,24.9,0,0,1,6.1-4.37,26.48,26.48,0,0,1-3.61,14.59,25.88,25.88,0,0,1-5.09,6.19c-1.55,1.38-3.25,2.59-4.93,3.82a68.73,68.73,0,0,0,8.61-15.8c.13-.33-.45-.58-.59-.25a75.87,75.87,0,0,1-10,16.41A66.14,66.14,0,0,0,309.5,123.62Zm-17.26,22.64a29.93,29.93,0,0,1-3.27-8.11,45.4,45.4,0,0,1-1.25-8.27,34.88,34.88,0,0,1,10.45,18.55q.24,1.19.39,2.37a104.92,104.92,0,0,1-7.47-14.49c-.18-.42-.88-.25-.71.19A119.17,119.17,0,0,0,298.24,153,27.36,27.36,0,0,1,292.24,146.26Zm-2,24.41c.48,1.57.93,3.14,1.3,4.74a42.21,42.21,0,0,1,1.16,8.07,32.3,32.3,0,0,1-2.71,14.9,24.57,24.57,0,0,1-2.61,4.32c.21-6.79.58-13.57,1.15-20.33.36-4.38.81-8.75,1.26-13.12C290,169.72,290.11,170.19,290.25,170.67Zm-4.91,34.42a47.75,47.75,0,0,1-2.71-15.2,45.26,45.26,0,0,1,2.71-15.63,46.35,46.35,0,0,1,3.63-7.67q.16.61.36,1.23c-1.41,8.73-2.31,17.54-3,26.34-.25,3.49-.45,7-.6,10.47C285.62,204.78,285.49,204.94,285.34,205.09Zm-10.48,17.19a30.25,30.25,0,0,1-1.43,2.7l-.25.41c.32-3.76.53-7.53.93-11.27a57.08,57.08,0,0,1,2.38-11.79A29.27,29.27,0,0,1,274.86,222.28Zm-1.21-15.93a24.39,24.39,0,0,1,1.74-3c-2,6.37-2.66,13.08-3.34,19.71-.06.55-.12,1.11-.17,1.66A26.74,26.74,0,0,1,273.65,206.35ZM275.9,79.29c1-2,2.13-3.94,3.22-5.89a45.34,45.34,0,0,1-7.66,31.9s0,0,0-.08A78.93,78.93,0,0,0,273,94.29c0-.54-.79-.53-.83,0a65.41,65.41,0,0,1-2.4,12.33C268,97.17,271.59,87.55,275.9,79.29ZM228.36,92.52a50.4,50.4,0,0,1-4.31-17.22,42.49,42.49,0,0,1,.41-8.87c6.57,8.34,11.12,18.5,10.75,29.29a32.86,32.86,0,0,1-1.34,8.3,25.17,25.17,0,0,0-.27-7.4c-.19-1-1.78-.6-1.56.43a22.76,22.76,0,0,1,.46,5.88A103.42,103.42,0,0,0,228.36,92.52Zm-43.31-9.44a58.7,58.7,0,0,1-4.77-8.23,14,14,0,0,1,7.53,5c2.43,3,3.82,6.58,5.08,10.15.39,1.11.76,2.22,1.15,3.32A60.85,60.85,0,0,1,185.05,83.08Zm6.37,22.08a29.19,29.19,0,0,1-13.35-12,20,20,0,0,1,11.56,4.53c3.52,2.74,6.17,6.24,9,9.6A29.25,29.25,0,0,1,191.42,105.16ZM189.6,128a28.77,28.77,0,0,1,1.21-7.13,32.35,32.35,0,0,1,8.42,24.64,27.89,27.89,0,0,1-.61,3.84c-.61-3.9-1.41-7.78-2.4-11.6-1.29-5-2.76-9.85-4.52-14.65-.09-.24-.47-.14-.39.1A134.6,134.6,0,0,1,197.5,150c.08.59.14,1.18.21,1.77C192.85,144.79,189.3,136.7,189.6,128Zm-6.71-18.52a21.5,21.5,0,0,1-6.27,15.09c0-.18,0-.36,0-.54A41,41,0,0,1,182.89,109.5ZM161.7,94a27.5,27.5,0,0,1,.82-7c4.54,8,9,16.21,11.11,25.25.35,1.52.61,3,.84,4.59A89.18,89.18,0,0,1,164,93.08a.27.27,0,0,0-.52.14A93.68,93.68,0,0,0,173,117,30,30,0,0,1,161.7,94Zm-7.63,19.64a12.22,12.22,0,0,1,3.12-5.93,56.46,56.46,0,0,1,4.39,10.65,28.28,28.28,0,0,1,.13,12.25c-.37,2-.84,4.1-1.27,6.16-.71-7.16-3.48-14.17-2.45-21.42.06-.44-.62-.64-.69-.19-1.3,8.13,1.6,16.08,1.84,24.17C155.56,131.26,151.89,122.51,154.07,113.64Zm-27.79,24.47a30.94,30.94,0,0,1-8.14-12.1,29.72,29.72,0,0,1-1.65-7,21,21,0,0,1,7.55,5.55,50,50,0,0,1,6.24,9.44c1.49,2.71,2.93,5.47,4.63,8.06-1.52-1.6-3-3.23-4.45-4.91a117.11,117.11,0,0,1-7.73-10.05c-.26-.38-.88,0-.62.36,2.31,3.55,4.75,7,7.38,10.33,1.78,2.25,3.64,4.47,5.61,6.58A52.73,52.73,0,0,1,126.28,138.11Zm19.43,8.23c-2.83-5.52-3.05-12-3.63-18.05a217.19,217.19,0,0,0-3.62-23.52A69,69,0,0,1,147.88,121a39.27,39.27,0,0,1,2.48,10.25c.35,3.71.24,7.43.31,11.14a58.58,58.58,0,0,0,.35,5.92c-2.73-6.71-3.55-14.1-4.87-21.22-.48-2.59-1-5.17-1.75-7.71a.3.3,0,0,0-.58.17c2.37,9.05,2.31,18.61,5.35,27.51a30.19,30.19,0,0,0,2.79,6A17.27,17.27,0,0,1,145.71,146.34Zm13.27,38c-3.56-3.87-5.45-8.83-7.26-13.69-.89-2.39-1.79-4.78-2.84-7.11,9.57,2.44,15.71,11.39,18.81,20.29.79,2.28,1.39,4.6,2,6.93a48,48,0,0,1-8-11.56c-.21-.46-.87-.06-.67.39a49.74,49.74,0,0,0,8,12.08A39.33,39.33,0,0,1,159,184.37Zm26.51,5.33a34.39,34.39,0,0,1,.45-7.24,75,75,0,0,1,11.22,26.32c.09.41.16.81.24,1.22-2.37-5.22-4.86-10.4-7.22-15.62-.21-.47-.89-.06-.69.4,2.75,6.4,5.25,12.91,7.95,19.33a36.58,36.58,0,0,1-8.11-10.25A33.67,33.67,0,0,1,185.49,189.7Zm-10.87-7.17c-.26-2.3-.37-4.61-.41-6.93,5.26,5.82,6.79,14.09,8.27,21.55q.32,1.54.66,3.09a66.31,66.31,0,0,1-5.47-14.65c-.1-.41-.71-.24-.62.17a66,66,0,0,0,5.5,15.67.5.5,0,0,0,.87,0c.11.48.23.95.35,1.43C178.21,197.69,175.47,190,174.62,182.53Zm2.69,20.36a29.83,29.83,0,0,1,3.42,1.51,63.91,63.91,0,0,0-6.33-1.47,64.69,64.69,0,0,0-11.7-1c-1.09,0-2.18,0-3.27.11A30.07,30.07,0,0,1,177.31,202.89Zm-4.63,6.23A25.33,25.33,0,0,1,160.84,207a19.52,19.52,0,0,1-2.93-1.63,16.5,16.5,0,0,1-1.36-1,3.76,3.76,0,0,1-1-1l.48-.2a68.79,68.79,0,0,1,23.13,2c1.62.41,3.23.87,4.81,1.42A40.23,40.23,0,0,1,172.68,209.12Zm19.89,10.69A25.46,25.46,0,0,1,203,225.08a73.67,73.67,0,0,0-19.89-5.45c-1.71-.22-3.42-.36-5.14-.46l.82-.1A38.3,38.3,0,0,1,192.57,219.81Zm-.43,8.11a25.26,25.26,0,0,1-11-3.22,24.48,24.48,0,0,1-4.63-3.39c-.36-.33-.71-.67-1-1-.16-.16-.3-.38-.47-.53a.14.14,0,0,1-.06-.11l.22,0,.75-.13a.58.58,0,0,0,.53.76,80,80,0,0,1,27.34,6.22c-1.85.29-3.68.73-5.54,1.06A25.83,25.83,0,0,1,192.14,227.92Zm-49.21-38a31.12,31.12,0,0,1-1.4-12.31,25.7,25.7,0,0,1,1-5.32c1,2.31,2.18,4.57,3.11,6.94a37.21,37.21,0,0,1,2.43,8.77,48.42,48.42,0,0,1,.11,8.43c-1.23-5.14-2.65-10.24-4.13-15.32a.46.46,0,0,0-.89.25c1.54,5.61,2.85,11.29,4.12,17A30.11,30.11,0,0,1,142.93,189.93ZM106.63,146a43.19,43.19,0,0,1-1.69-10.46c6.75,5.61,9.8,14.42,11.67,22.73q.24,1.06.45,2.13c-1.17-2.12-2.33-4.25-3.42-6.42q-2.69-5.39-4.85-11c-.13-.34-.67-.2-.55.15,1.33,3.77,2.81,7.5,4.41,11.16a96.66,96.66,0,0,0,5.29,10.58,2.33,2.33,0,0,0,0,.28c-.34-.34-.69-.67-1-1A45.21,45.21,0,0,1,106.63,146Zm-5.92,25.9c-2.52-3.57-4.21-7.77-7-11.17a24.42,24.42,0,0,1,11.39,5.16A44.87,44.87,0,0,1,115,177.23c1,1.57,1.93,3.19,2.88,4.79A220.49,220.49,0,0,1,101.13,165c-.24-.29-.64.12-.41.41a194.21,194.21,0,0,0,16.33,17.95C110.9,180.59,104.68,177.53,100.71,171.89Zm-9.19,14.74a28.93,28.93,0,0,1-9-11.71,24.75,24.75,0,0,1-1.91-7.24,29.87,29.87,0,0,1,6.73,5.44,62.78,62.78,0,0,1,5.94,8,100.89,100.89,0,0,0,6.58,9.26c-6-3-9.54-9.18-12.63-14.91-.14-.25-.51,0-.38.22,2.49,4.94,5.27,10.39,9.61,13.93A28.84,28.84,0,0,1,91.52,186.63Zm8,20.55c-5.41.23-9.94-3.41-13.29-7.29a14,14,0,0,1-3.64-7,72.58,72.58,0,0,0,22.7,7.19c1,.15,2.08.27,3.11.36-5.83.58-11.86.42-17.14-2.12A17.85,17.85,0,0,1,86.53,195a.53.53,0,0,0-.75.76c5.46,5.56,13.68,6.48,21.08,5.9,1.78-.14,3.55-.37,5.32-.58C108.48,204,104.38,207,99.55,207.18ZM79.13,220.27a21.15,21.15,0,0,1-6.52-2.53A92.9,92.9,0,0,0,87,215.66c5.06-1.12,10.07-2.47,15.09-3.74a102.81,102.81,0,0,1-19.24,6.2c-.66.14-.38,1.16.28,1a105.77,105.77,0,0,0,21.58-7.25C97.75,218.1,88.53,222.22,79.13,220.27Zm56.81,13.88a27,27,0,0,1-7.76,1.89A19.64,19.64,0,0,1,120.5,235a18.63,18.63,0,0,1-6.24-3.67c6.74-.44,13.38-2,20.1-2.6,1.72-.16,3.46-.25,5.19-.27l-.51.1c-4.47,1-8.86,2.49-13.47,2.45a.54.54,0,0,0,0,1.07c4.45,0,8.69-1.37,13-2.39a34.52,34.52,0,0,1,6.22-1,34.73,34.73,0,0,1,3.77.59C144.17,230.34,140.12,232.56,135.94,234.15Zm.51,35.55A77.07,77.07,0,0,1,125.67,268c7-3.33,15.17-2.69,22.55-.67,1.24.34,2.47.73,3.68,1.14-2-.12-4-.31-5.94-.53q-4.62-.53-9.17-1.41c-.64-.13-.92.86-.27,1,3,.61,6.11,1.09,9.19,1.43,2.31.26,4.61.4,6.91.52A80.17,80.17,0,0,1,136.45,269.7Zm6.11-9.62c-4-1.86-8.47-3.48-12.92-3.06a19.32,19.32,0,0,1,12-3.19,23.23,23.23,0,0,1,13.58,5.76,31.78,31.78,0,0,1,4.66,5A51.32,51.32,0,0,1,144,256.92c-.66-.47-1.29.62-.64,1.09a51.07,51.07,0,0,0,13.8,7.12c-.36,0-.71-.06-1.07-.11C151.25,264.37,147,262.12,142.56,260.08Zm-31.19-13.22a22.5,22.5,0,0,1,1-5.41,51.59,51.59,0,0,1,3.19,14.42c.19,2.77,0,5.53.08,8.31,0,.45,0,.89.07,1.33C113.09,259.58,111,253.46,111.37,246.86Zm-29.66-10.6c1.74,1.58,3.39,3.24,5,5l-2.4-1.82c-1.81-1.34-3.62-2.65-5.45-4q-5.49-3.9-11.19-7.49a.36.36,0,0,0-.43,0c-.68-.84-1.35-1.68-2-2.54A58.63,58.63,0,0,1,81.71,236.26ZM68.57,229.6l-.09-.11c3.3,2.18,6.58,4.39,9.82,6.66Q81,238,83.68,240c1.28.94,2.57,1.89,3.83,2.86C79.94,240.62,73.72,235.5,68.57,229.6Zm25,25.88a.44.44,0,0,0-.12-.78,39.25,39.25,0,0,1-8.84-5.14c-.27-.21-.63.26-.36.46a44.57,44.57,0,0,0,8.69,5.4,22.12,22.12,0,0,1-14.65-7.53,18.88,18.88,0,0,1-2.44-3.69c3.16,1.44,6.3,2.93,9.38,4.53a53.34,53.34,0,0,1,10,6.5l.33.31Q94.59,255.54,93.6,255.48ZM83.72,267a48,48,0,0,1-13.28-.16,32.84,32.84,0,0,1-5.59-1.46,47.18,47.18,0,0,1,8.27-3.05,28.74,28.74,0,0,1,10-.5,40.31,40.31,0,0,1,8.2,1.88,49.39,49.39,0,0,0-14.21,0c-.55.08-.32.91.23.83a45.85,45.85,0,0,1,17.81.69C91.36,265.91,87.54,266.54,83.72,267Zm17.21-15.34c-2.52-5-5-10.11-6.27-15.6a28.75,28.75,0,0,1-.75-7.78,47.35,47.35,0,0,1,8.23,14.53,48.67,48.67,0,0,1,2.21,8.8c.11.73.19,1.45.27,2.18a60.78,60.78,0,0,0-6.72-15.9.48.48,0,0,0-.82.48,60.51,60.51,0,0,1,7.23,20.35C103.26,256.27,102.09,253.93,100.93,251.61ZM81.16,304.34a16.72,16.72,0,0,1-7.38.13c4.43-6.36,12.53-8.54,19.8-9.71l1.61-.25A91.31,91.31,0,0,0,81.63,300c-.71.36-.09,1.43.62,1.07A89.23,89.23,0,0,1,101,294C94.4,297.49,88.58,302.63,81.16,304.34Zm9.28,18.15a34,34,0,0,1-7.65-3c9.86-6.1,22.26-2.88,33.09-2.19l1.09.05a127.1,127.1,0,0,1-20,1.75c-2.35,0-4.7,0-7.05-.12-.73,0-.73,1.11,0,1.15a125.1,125.1,0,0,0,25-1.25c1.39-.21,2.77-.46,4.15-.72A37.25,37.25,0,0,1,90.44,322.49ZM127,300.9a61.17,61.17,0,0,1-18.11,6.23,34.55,34.55,0,0,1-9.74.17c9.1-7.45,19.72-13.66,31.71-14.39a36.41,36.41,0,0,1,7.16.3l1.61.61c-8.29.73-16.32,3.32-24.06,6.34-2.62,1-5.21,2.09-7.81,3.18-.68.28-.39,1.41.32,1.13,8.94-3.65,18-7.38,27.59-8.9l1.82-.25c-.67.32-1.33.66-2,1C132.7,297.87,129.9,299.45,127,300.9Zm-23.41-16.45a35.59,35.59,0,0,1-16.89,5.37,33.11,33.11,0,0,1-5-.11c-1.18-.12-2.79-.2-3.73-1.06a57,57,0,0,1,23.45-9.39c-2,.78-3.87,1.71-5.81,2.58a22.85,22.85,0,0,1-5.91,1.87c-.68.1-.39,1.14.29,1,4.51-.68,8.37-3.26,12.61-4.77a25.51,25.51,0,0,1,6.89-1.4c1.49,0,3,.05,4.47.16C110.27,279.94,106.93,282.41,103.61,284.45Zm43.7-2.14a59.77,59.77,0,0,0-5.78-3.15c-.37-.17-.69.37-.32.55a51.38,51.38,0,0,1,9.43,6.07l-1.46-.35-1.76-.36a59.48,59.48,0,0,1-14-8.47C138.77,275.78,143.39,278.73,147.31,282.31Zm38.12-123.72.09.49-.36-.5A.82.82,0,0,0,185.43,158.59Zm-1.37-17.26a32.9,32.9,0,0,1,.83,6.85c.05,2.36-.06,4.72.09,7.07a40.78,40.78,0,0,1-2.43-14,.36.36,0,0,0-.71,0,42.49,42.49,0,0,0,2.52,16.15,20.3,20.3,0,0,1-1.33-2.47q-1.53-5.13-2.54-10.39c-.28-2.61-.41-5.25-.57-7.8-.12-2.08-.34-4.15-.59-6.22A33.67,33.67,0,0,1,184.06,141.33Zm-13.72,16a26.51,26.51,0,0,1-3-12.72,40.21,40.21,0,0,1,.66-7,42.47,42.47,0,0,1,8.9,20.2c.21,1.38.33,2.77.41,4.17-.21-.39-.42-.77-.61-1.16-.92-1.81-1.77-3.65-2.6-5.51a106.91,106.91,0,0,1-4.32-11.38.34.34,0,0,0-.65.18,109.06,109.06,0,0,0,3.9,11.65c.74,1.87,1.56,3.71,2.42,5.52.54,1.14,1.08,2.32,1.69,3.46A20.83,20.83,0,0,1,170.34,157.33Zm42,97a5.76,5.76,0,0,0,.85.37c.31.48.65.94,1,1.39-.23-.14-.45-.29-.68-.42-.46-.27-.92-.51-1.38-.76A.85.85,0,0,0,212.31,254.38Zm-16.88-16.67c-1-1.36-2-2.77-2.85-4.23A20.65,20.65,0,0,1,206.16,245c.85,1.87,1.54,3.82,2.55,5.61.22.38.46.74.71,1.1l-.83-.65c-2.57-3.67-5.09-7.39-7.87-10.89-.4-.51-1.26.15-.9.69,1.72,2.56,3.57,5,5.45,7.47-.76-.66-1.5-1.32-2.22-2A65.81,65.81,0,0,1,195.43,237.71Zm-5.14,8.62c2.07,1.23,4.16,2.42,6.29,3.55s4.61,2.38,6.92,3.56c2.62,1.33,5.24,2.66,7.82,4.08,1.23.67,2.46,1.37,3.67,2.09l1.83,1.1c.59.35,1.19.71,1.81,1h0l1.17.86c.35.28.69.58,1,.89s.8.83,1.19,1.26l.06.07a51,51,0,0,1,8.25,26.95c.1,4.3-.15,8.62-.06,12.92-.09-.41-.18-.83-.29-1.23a20.15,20.15,0,0,0-1.18-3.17,23.1,23.1,0,0,0-1.64-2.91s0-.07,0-.1a19.58,19.58,0,0,0-1.67-2.64c-.59-.83-1.23-1.63-1.88-2.41a37.4,37.4,0,0,0-4-4c-1.46-1.26-3-2.42-4.58-3.55s-3.38-2.28-5-3.52a46.73,46.73,0,0,1-4.72-4.28c-1.52-1.56-3-3.18-4.39-4.83l-2.11-2.47a22.32,22.32,0,0,0-1.44-2.19,42.14,42.14,0,0,0-4.06-4.69.45.45,0,0,0,.09-.79c-1.24-.8-2.46-1.64-3.67-2.5-1.27-1.07-2.57-2.11-3.88-3.12s-2.55-1.94-3.83-2.89A153.39,153.39,0,0,1,167.26,239a149.25,149.25,0,0,1-20-28.16c-1.48-2.71-2.81-5.47-4.06-8.27,1.8,2.45,3.74,4.79,5.73,7.09a104.85,104.85,0,0,0,15.84,18,232.54,232.54,0,0,0,17.82,18.77c6.14,5.58,13.27,9.75,19.93,14.64,6.83,5,13.77,11.12,16.07,19.59a.6.6,0,0,0,1.16-.32c-1.73-7.27-6.45-13.15-12.13-17.81-6-4.94-12.66-9.06-18.69-14a99.57,99.57,0,0,1-9.78-9.38Q184.59,242.94,190.29,246.33ZM201.64,276c0-.07,0-.13-.07-.2s.08.09.11.14Zm-79-124.13a23.13,23.13,0,0,1,.87-6.88c4.36,8.71,8.74,17.76,10,27.52.08.65.15,1.3.21,2a64.15,64.15,0,0,0-2.09-6.23c-1.16-2.91-2.55-5.72-4-8.5-.13-.24-.47,0-.36.21a80.59,80.59,0,0,1,3.37,8.8c.71,2.16,1.36,4.34,2,6.54C127.36,168.35,122.83,160.72,122.61,151.84Zm14.55,40.7,0,.05-.06-.24Zm-21,2.78a17.44,17.44,0,0,1-2.75-1.93,7.65,7.65,0,0,1-1.88-2.17,33.15,33.15,0,0,1,22.4,6.72c.32.24.63.5.94.75a45.44,45.44,0,0,0-12.71-5.07c-.6-.15-.86.79-.26.92a45.87,45.87,0,0,1,14.69,6.13l1.39,1.19C130.94,199.05,122.89,199.14,116.18,195.32Zm19.61,29.57a24.31,24.31,0,0,1-9-2.2,25.46,25.46,0,0,1-7-5.29c-2-2.05-3.83-4.28-5.73-6.43a86.6,86.6,0,0,1,31.36,8.27c1.66.8,3.31,1.64,4.93,2.53.32.51.67,1,1,1.52a101.19,101.19,0,0,0-20.1-6.92q-3.52-.8-7.1-1.35c-.76-.11-1.09,1-.32,1.16a105.2,105.2,0,0,1,24.23,7c1.24.53,2.47,1.09,3.68,1.66C146.44,224.63,141.11,225.26,135.79,224.89ZM161.34,247a64.52,64.52,0,0,1-8.22-2.16q-4.08-1.28-8.11-2.67c-2.56-.89-5.11-1.83-7.64-2.8,9.66-2.76,19.77.8,28.32,5.4,1,.52,1.92,1.07,2.88,1.62-6.92-2.08-13.83-4.19-20.75-6.28a.47.47,0,0,0-.25.9l20.48,6.46A60.18,60.18,0,0,1,161.34,247Zm13.22,14.37a23.93,23.93,0,0,1-6.86-2.77,24.47,24.47,0,0,1-5.33-4.38,84.06,84.06,0,0,1,10.57,2.09,28.11,28.11,0,0,1,9,3.87,14.39,14.39,0,0,1,3,2.82c-1.07-.19-2.14-.35-3.2-.49C179.37,262.18,176.94,261.92,174.56,261.36Zm10.63,9.18c-1.67,1.8-2.8,4-4.29,5.92-2.94,3.85-7.65,5.66-12.34,6.24a52,52,0,0,1-6.84.3c3.64-2.31,7.32-4.55,11.07-6.68,2.72-1.54,5.45-3.08,8.2-4.58-3.21,2.47-6.41,5-9.61,7.44-.45.35.15,1.15.61.8,3.25-2.46,6.5-4.91,9.74-7.38,1.54-1.17,3.06-2.38,4.63-3.5.44-.32.9-.62,1.37-.9A23.48,23.48,0,0,0,185.19,270.54Zm10,22.26a39.81,39.81,0,0,1-5.28-3.09c-1.66-1.16-3.21-2.46-4.79-3.73a44.87,44.87,0,0,0-4.71-3.38c3.43-2,8.08-1.42,11.44.38a21.37,21.37,0,0,1,5.29,4.17,65.57,65.57,0,0,1,4.12,5.13,10.47,10.47,0,0,0,4.79,3.85,1.88,1.88,0,0,1-.24.14,6.45,6.45,0,0,1-.62.21q-7.68-5-15.33-10c-.72-.48-1.4.69-.67,1.16q5.78,3.75,11.54,7.56C198.82,294.49,197,293.69,195.16,292.8Zm35.61,32q-2.07-2.58-4.22-5.11c-1.46-1.71-2.92-3.41-4.37-5.14-.74-.87-1.47-1.75-2.2-2.63s-1.47-1.75-2.17-2.65a73.78,73.78,0,0,1-8.34-14.93,10.69,10.69,0,0,0-.56-1.53c-.61-1.48-1.3-2.94-2-4.38-.53-1.24-1.08-2.47-1.63-3.7s-1.08-2.29-1.65-3.42l0-.05a.27.27,0,0,1,.08-.07.3.3,0,0,1,.11-.06l.19-.05a3.55,3.55,0,0,1,.46,0,6.64,6.64,0,0,1,1.3.44,24,24,0,0,1,4.11,2.65q2.07,1.58,4.06,3.24a61.17,61.17,0,0,1,10.6,10.61,36,36,0,0,1,4.21,7.86c.28.75.55,1.51.81,2.27s.49,1.51.74,2.26c.18.54.37,1.07.56,1.6a76.6,76.6,0,0,0,1.72,8.5c.33,1.46.7,2.92,1.12,4.36.68,2.31,1.45,4.61,2.27,6.88-.4-.6-.81-1.2-1.23-1.78C233.48,328.27,232.13,326.54,230.77,324.84ZM208.24,149.56c1-3.42,2.16-6.8,3.32-10.17a45.91,45.91,0,0,1,1.7,28.4c-.84,3.21-1.95,6.34-2.94,9.51-.13.4-.25.81-.38,1.22a148.62,148.62,0,0,1,.92-19.56c.35-3,.8-5.89,1.33-8.81.07-.39-.52-.56-.6-.17a154.25,154.25,0,0,0-3.06,31.2c0,.85.05,1.7.08,2.55-.17.86-.31,1.72-.4,2.59C202.9,174.87,204.77,161.31,208.24,149.56Zm31.54,79.65c-.1.94-.2,1.89-.31,2.83-.42,3.45-.83,6.9-.92,10.37a46.83,46.83,0,0,1-1.15-7.55c0-.42-.05-.84-.07-1.25A17,17,0,0,0,239.78,229.21Zm-7.49-8.09a49.07,49.07,0,0,1,.06-12.87c.25-2.2.57-4.4.91-6.59a10.1,10.1,0,0,1,2.83,4.17,55.9,55.9,0,0,1,2.07,6.67c1.2,4.6,1.9,9.36.9,14.07a18,18,0,0,1-1.82,4.9c-.12-4,0-8.05-.35-12.06a61.47,61.47,0,0,0-1.38-8.85c-.09-.38-.66-.22-.58.15a37.27,37.27,0,0,1,.77,8.23c0,2.68,0,5.37-.06,8.05,0,1.27,0,2.54,0,3.82A28.55,28.55,0,0,1,232.29,221.12Zm4.27,20.94c.07.31.16.61.23.91-.18-.32-.35-.65-.53-1a.82.82,0,0,0,.24-.25C236.53,241.85,236.54,242,236.56,242.06Zm-17-44.81a48.12,48.12,0,0,1-1.17-16,63.1,63.1,0,0,1,1.25-8.08,28.1,28.1,0,0,1,5.69,11.93,52.7,52.7,0,0,1,1.12,16.33c-.16,1.9-.41,3.8-.73,5.69-.29-2.36-.58-4.7-.92-7a75.59,75.59,0,0,0-2.92-12.78.38.38,0,0,0-.74.2c2,6.8,2.57,13.89,3.16,20.93A41.68,41.68,0,0,1,219.56,197.25Zm30.53-23.76c-.05.31-.1.61-.16.91,0-.37-.05-.75-.08-1.12A.53.53,0,0,0,250.09,173.49Zm-9.51-41.65a53,53,0,0,1,1.83-8c.67-2.3,1.43-4.58,2.08-6.89a72.69,72.69,0,0,1,2,12.23,37.46,37.46,0,0,1-.17,7.26,40.88,40.88,0,0,1-1.66,6.8,35.49,35.49,0,0,0-1,4,52.06,52.06,0,0,1-.31-7.79,46.52,46.52,0,0,1,1.4-9.83.36.36,0,0,0-.69-.19,50.09,50.09,0,0,0-1.8,17.39l.06.6a44.31,44.31,0,0,1-1.71-7.46A30.62,30.62,0,0,1,240.58,131.84ZM213.94,96.15a32.36,32.36,0,0,1-.12,7.16A137.91,137.91,0,0,1,203.14,80c-1.07-3-2.08-5.93-3.08-8.92A36,36,0,0,1,213.94,96.15Zm-11.26-1.22a27.22,27.22,0,0,1-4.8-15.68A29.9,29.9,0,0,1,199,71.42c3.78,10.89,7.54,21.94,13.18,32A28,28,0,0,1,202.68,94.93ZM218,125.42a27.86,27.86,0,0,1-13.68-4.08,17.89,17.89,0,0,1-4.8-4.5c-.43-.59-1.57-2.11-.32-2.4a29.86,29.86,0,0,1,3.9-.46,57.76,57.76,0,0,1,8.1-.4,19.47,19.47,0,0,1,7.48,1.42,19.09,19.09,0,0,1,6,5.07c1.18,1.36,2.3,2.78,3.38,4.21a.81.81,0,0,0-.34.53,59.94,59.94,0,0,0-18.26-7.14c-.8-.16-1.14,1-.34,1.22A60.49,60.49,0,0,1,227,125.67C224,125.26,220.91,125.59,218,125.42Zm11.38,21A35.32,35.32,0,0,1,219,139.09a25.46,25.46,0,0,1-3.67-4.85c4.31,0,8.69.19,12.81,1.57A19.92,19.92,0,0,1,238.27,144a36.57,36.57,0,0,1,2.5,4.44,44.36,44.36,0,0,0-5.66-5.2,40.48,40.48,0,0,0-9.93-5.49c-.66-.25-.94.81-.29,1.07a41.37,41.37,0,0,1,9.61,5.26,36,36,0,0,1,6.86,6.47A78.77,78.77,0,0,1,229.41,146.38Zm4.34,42.15A57.37,57.37,0,0,1,227,166.66a55.89,55.89,0,0,1,.12-12c5.22,4.09,8.15,10.42,9.74,16.74a95,95,0,0,1,2,12.09c.44,3.68.9,7.35,1.5,11-1-2.93-2-5.86-2.94-8.8q-2.37-7.35-4.5-14.78c-.81-2.81-1.58-5.62-2.32-8.45a.24.24,0,0,0-.47.13c2.48,10,5.17,19.94,8.26,29.77.62,2,1.23,3.94,1.88,5.9l-.16-.24A95.53,95.53,0,0,1,233.75,188.53Zm75.3-24.44,0,.06a1.16,1.16,0,0,1,0-.18S309.05,164.05,309.05,164.09Zm8.39-29.16a30.24,30.24,0,0,1,6.25-5.43,45.89,45.89,0,0,1-3.11,16.33,48.19,48.19,0,0,1-4,8,78.24,78.24,0,0,1-5.15,7l-.9,1.17c.71-3.51,2.68-6.76,4.16-10a85.7,85.7,0,0,0,4.89-13.62.4.4,0,0,0-.77-.21,85.63,85.63,0,0,1-5.35,13.92,62.83,62.83,0,0,0-3.64,7.79c.4-3.45.22-6.95.77-10.38A29.38,29.38,0,0,1,317.44,134.93Zm-26.6,24.86a19.34,19.34,0,0,1-1-5.42,36.54,36.54,0,0,1,12.85,13.26c-2.41-1.85-5.35-3.34-6.86-5.88a.33.33,0,0,0-.57.33c2.06,3.59,6.73,5.28,9,8.66.21.5.41,1,.59,1.53A19.56,19.56,0,0,1,290.84,159.79ZM268.75,263.16l0-.06a9.08,9.08,0,0,1,.55-1.77l.05.07h0C269.11,262,268.92,262.57,268.75,263.16Zm1.86-3.65-.06,0,.15-.2A1.45,1.45,0,0,0,270.61,259.51Zm-6.89-7.85-.51-1.56c.1-.49.2-1,.31-1.48C263.57,249.64,263.63,250.65,263.72,251.66ZM270,190.14a33.47,33.47,0,0,1,3.3-4.38c.47,3.47-1.05,7.17-2.51,10.21a38.42,38.42,0,0,1-5.64,8.52c0-.11-.06-.22-.08-.33A34,34,0,0,1,270,190.14Zm3.74-31.91a51.8,51.8,0,0,1,7.44-7.14,44.44,44.44,0,0,1-3.93,16.5,45.61,45.61,0,0,1-4.56,7.82,54.11,54.11,0,0,1-6,6.74A51.9,51.9,0,0,0,263,186a60.77,60.77,0,0,1,8.52-17.51,51.68,51.68,0,0,1,4.37-5.32c.27-.29-.16-.72-.44-.44a58.12,58.12,0,0,0-12.95,20.41c-.27.73-.51,1.47-.75,2.21a54.63,54.63,0,0,1,2.19-9.53A53.13,53.13,0,0,1,273.69,158.23Zm-.77-38.2c2.24-1.65,4.58-3.14,6.89-4.67a37.13,37.13,0,0,1-5.05,14.17,38.19,38.19,0,0,1-4.93,6.46,50.88,50.88,0,0,1-6.14,5.3,27.11,27.11,0,0,0-4.33,3.89,42.5,42.5,0,0,1,2.74-7.1,44.09,44.09,0,0,1,5.76-8.62,40.94,40.94,0,0,1,4.16-4.17c.3-.26-.13-.68-.43-.43a42,42,0,0,0-12.39,16.88c-.28.67-.53,1.35-.76,2,0-.17-.07-.34-.1-.51-.12-.51-.24-1-.37-1.52a26.13,26.13,0,0,1,3.44-9.68C264.23,127.22,268.44,123.34,272.92,120ZM255.8,81.44a71.56,71.56,0,0,1,7.43-14.19c.95,13.59.56,27.8-6.05,40a40.79,40.79,0,0,1-5,7.21c1.53-8.62,3.32-17.2,5.47-25.68q1-3.94,2.1-7.87a.35.35,0,0,0-.67-.18c-2.69,9.11-5.13,18.34-7.07,27.65-.34,1.63-.64,3.27-1,4.9l-.21-.72A75.31,75.31,0,0,1,255.8,81.44Zm23.6,165.68h0l.13-.18A1.74,1.74,0,0,0,279.4,247.12ZM421.58,314.8a17.41,17.41,0,0,1-13.62,0c-4-1.7-6.78-5-9.93-7.82,4.27,1.55,8.51,3.17,12.69,4.95.43.19.81-.44.37-.64-5.24-2.38-10.5-4.7-15.85-6.8,3.3.9,6.58,1.9,9.81,3.05A144.35,144.35,0,0,1,421.58,314.8Zm-49.4-9.39c5.89,1.1,11.7,2.52,17.5,4-6.9,1.1-13.42,4.55-20.52,4.49-7.82-.07-14.84-4.31-21.88-7.17l-1.33-.52h0l14.6,1.18c5.44.44,10.88.91,16.33,1.28.49,0,.47-.7,0-.75-9.88-1.14-19.8-2.05-29.7-3.05-4-.41-8-.89-12-1.14C347.48,302.12,360,303.14,372.18,305.41Zm28.79-7.2a60.57,60.57,0,0,1-13.74-4.11l-1.06-.43a225.89,225.89,0,0,0,31.5,2q4.72-.1,9.44-.58l.11,0A49.87,49.87,0,0,1,401,298.21Zm7.06-6.5a30.47,30.47,0,0,1,10,.61,63.84,63.84,0,0,1,7.56,2.27,185.57,185.57,0,0,1-29.62-1c.71-.05,1.42-.1,2.14-.18C401.46,293,404.71,292.09,408,291.71Zm-24.57.83a.43.43,0,0,0,0,0l-.25-.1ZM418,280.1a29.11,29.11,0,0,1-9.45-.3c-2.82-.56-5.6-1.33-8.47-1.67l.22-.07a.72.72,0,0,0,.27-.16c3.81-.43,7.62-.87,11.44-1.23,2.55-.24,5.1-.45,7.65-.61a55.65,55.65,0,0,1,6.83-.19,12.61,12.61,0,0,1,6.43,1.88C427.91,277.91,422.94,279.46,418,280.1Zm15.69-2.36a.57.57,0,0,0,0-.13l.18.13Zm-7.93-3.5a27.51,27.51,0,0,1,4.09,1.33,28.42,28.42,0,0,0-8.58-.55c-5.28.23-10.54.68-15.79,1.21-1.59.16-3.19.33-4.78.52l-.06-.06c1.6-.52,3.2-1,4.82-1.46C412,273.45,419.06,272.65,425.76,274.24Zm-28.35-21.1a52.79,52.79,0,0,1-1.73-6.26,29.1,29.1,0,0,0,2.59,5.75c2.21,3.65,5.16,6.78,7.48,10.35a23.27,23.27,0,0,1,2.58,5.22C403,264.78,399.46,259,397.41,253.14Zm3.06-5.57a28.33,28.33,0,0,1,4.56,5.28,21.71,21.71,0,0,1,2.74,7.35,44.63,44.63,0,0,1,.72,6.32,36.34,36.34,0,0,0-4.92-8.39c-1.28-1.75-2.57-3.49-3.71-5.33a29.28,29.28,0,0,1-2.92-6.14c-.48-1.41-.91-2.86-1.41-4.28l.29.4A47.78,47.78,0,0,0,400.47,247.57ZM392,208.08a28.05,28.05,0,0,1-2.7,5,14.62,14.62,0,0,1-4.14,4,16,16,0,0,1-5.61,2c-.58.1-1.17.18-1.76.25,4.28-3.29,7.41-8,11.35-11.64a24.08,24.08,0,0,1,3.89-2.94l.62-.2A21.54,21.54,0,0,0,392,208.08Zm-11.47,5.39a26.61,26.61,0,0,1,8.7-7.11l.8-.37c-4.09,3.14-7.2,7.48-11,10.92a25.4,25.4,0,0,1-2.31,1.86c.26-.26.5-.54.73-.82C378.54,216.52,379.39,214.9,380.53,213.47Zm-91.37,84a2.51,2.51,0,0,0,0,.27q-1.35,1.78-2.63,3.6,1.35-2.6,2.9-5.08C289.31,296.68,289.23,297.08,289.16,297.48Zm27.61-28.14c-7.61,3.35-15.79,6.76-21.3,13.27a27.21,27.21,0,0,0-5.36,10.51,84.18,84.18,0,0,0-4.94,7.72,47.93,47.93,0,0,0-3,6.63c-.24-4.67-.71-9.33-.79-14a167.3,167.3,0,0,1,.62-17c.08-.93.18-1.85.28-2.77.31-2,.72-4,1.16-5.92.13-.57.28-1.14.42-1.71a1.16,1.16,0,0,0,1.2-.42A25.9,25.9,0,0,1,290.5,261c.85-.4,1.72-.78,2.59-1.15l-.08,0c4.13-1.73,8.39-3.1,12.65-4.48,1.95-.64,3.92-1.25,5.87-1.89l2.65-.71a57.93,57.93,0,0,0,15.41-6.32A61,61,0,0,0,342.9,234.7a138.67,138.67,0,0,0,8.6-11.17.63.63,0,0,0,.11.13c-.9,2.27-1.69,4.58-2.45,6.91-1.07,3.3-2.05,6.7-3.18,10-1.38,2.91-2.82,5.8-4.4,8.61a33.42,33.42,0,0,1-4.94,4.72c-10.14,7.79-23.53,8.36-35.1,12.84-6.2,2.39-12,5.87-16,11.31-.46.63.59,1.23,1.06.61,3.61-4.78,9-7.84,14.48-10,5.83-2.24,11.94-3.53,18-5.14s12.29-3.67,17.49-7.41c.42-.31.83-.64,1.23-1l0,0a36.81,36.81,0,0,1-6.37,6.35c-1,.8-2.1,1.54-3.2,2.25A118,118,0,0,1,316.77,269.34Zm42.3-48.23a10.72,10.72,0,0,1,4-1.28A18.86,18.86,0,0,0,359.07,221.11Zm-3.13-1.21c.51-1.22,1.06-2.43,1.66-3.6a48.44,48.44,0,0,1,3.18-4.11A68.29,68.29,0,0,0,355.94,219.9Zm48.21-24.31a45.16,45.16,0,0,1,8,2.91,39.69,39.69,0,0,1-14.4,2.48,38.36,38.36,0,0,1-8-1c-2.7-.63-5.34-1.47-8.05-2.08l-1.23-.25a63.53,63.53,0,0,1,9.33-.65,58.71,58.71,0,0,1,8.78.69c.5.08.72-.67.21-.76a61.21,61.21,0,0,0-16-.79,49,49,0,0,0-6.77,1q-.42,0-.84,0A48.58,48.58,0,0,1,404.15,195.59Zm14.13-14.27a60.83,60.83,0,0,1,8.29,1c-1.62.56-3.17,1.35-4.74,2.07a38.36,38.36,0,0,1-21.94,2.94,38,38,0,0,1-4.8-1.14c3.17-.31,6.33-.62,9.48-1,3.65-.4,7.29-.87,10.94-1.25.39,0,.4-.65,0-.61-6.63.57-13.26,1-19.89,1.61l-2.55.23A65.59,65.59,0,0,1,418.28,181.32Zm-62.8,31.51-.35.42c0-.12,0-.24,0-.36s.14-.48.2-.72v.35A.41.41,0,0,0,355.48,212.83Zm-6.4-23.64a30.47,30.47,0,0,1-4.66-9.5,26,26,0,0,1-.4-11.3c3.52,2.36,5.81,6.12,7.24,10.06a64,64,0,0,1,2.9,14.32q.33,2.88.57,5.77l-.17-.45-.27-.59a54.34,54.34,0,0,0-1.79-8.77,60.84,60.84,0,0,0-5.18-12.12c-.17-.3-.62,0-.46.27a59.1,59.1,0,0,1,5.78,17.57C351.54,192.65,350.28,190.93,349.08,189.19Zm-12.84,28.12a24.62,24.62,0,0,1,3.66-7.77,65,65,0,0,1,5.66-6.95,40.17,40.17,0,0,1-.83,15.67,41.28,41.28,0,0,1-2.86,7.86,52.06,52.06,0,0,1-3.13,5.36A52.81,52.81,0,0,0,341,219.06c.17-2.18.27-4.37.4-6.55,0-.44-.65-.43-.68,0-.3,3.71-.69,7.43-1.31,11.1a42.12,42.12,0,0,1-3,10.5c-.28.61-.59,1.2-.91,1.79a28.79,28.79,0,0,0,.46-8.52C335.71,224,335.4,220.62,336.24,217.31ZM321,226.64a14.92,14.92,0,0,1,2.48-4.86,21.43,21.43,0,0,1,.1,21.08c-.26.46-.53.91-.82,1.35a28.67,28.67,0,0,0,.08-13.75c-.07-.31-.54-.18-.48.14a28.76,28.76,0,0,1-1,14.43C322.31,239.1,319.25,232.57,321,226.64Zm-18.19,15.77a28.82,28.82,0,0,1,4.13-8.84,24.29,24.29,0,0,1,7.41-6.68,36.5,36.5,0,0,1-14.69,26.75l-.35.12a36.49,36.49,0,0,0,8.33-11.7,43.69,43.69,0,0,0,2.07-5.78.29.29,0,0,0-.56-.15A39.06,39.06,0,0,1,299,252.29l.15-.22C300.93,249.11,301.77,245.7,302.76,242.41Zm25.11-29a28.17,28.17,0,0,1-4.2,2.32l2.09-2a74.73,74.73,0,0,0,11.64-14.12,66.44,66.44,0,0,0,3.87-7.14A31,31,0,0,1,327.87,213.36ZM326.64,207a20.18,20.18,0,0,1,2.92-7.17c2.94-4.19,7.48-6.91,11.88-9.38a65.13,65.13,0,0,1-9.08,14.77,98.77,98.77,0,0,1-7.65,8.07A36.62,36.62,0,0,0,326.64,207Zm-13.55,11.59c.55-3.26.3-6.58,1.08-9.81a23.94,23.94,0,0,1,4.29-8.95c1.68,3.52,1.42,7.61.33,11.28a28.29,28.29,0,0,1-3.9,8.19c2.2-4,3.11-8.85,3.51-13.42,0-.37-.53-.36-.58,0-.64,5.34-2.09,11-5.44,15.3A13.21,13.21,0,0,0,313.09,218.56Zm-12.74,11.51a25.94,25.94,0,0,0-3.41,2.56c.14-.32.28-.65.43-1A13.52,13.52,0,0,1,300.35,230.07Zm9.67-34.5a29.65,29.65,0,0,1,5.89-4.94A41.79,41.79,0,0,1,330.56,185a56.11,56.11,0,0,1,7.76-.94c-1.85,1.65-3.49,3.51-5.26,5.24a20.73,20.73,0,0,1-7.36,4.89c-5.36,2-11.28,2.06-16.28,5-.21.12-.42.26-.63.4,3.66-5,9.55-8.15,15.33-10.26,2.27-.83,4.57-1.53,6.88-2.22a.38.38,0,0,0-.2-.74c-7.9,2.28-16.36,4.68-21.88,11.19a21.71,21.71,0,0,0-1.43,1.92c.07-.34.13-.68.19-1A21.9,21.9,0,0,1,310,195.57ZM319.34,173a21.55,21.55,0,0,1,10.28-6,14.9,14.9,0,0,0,5.27-2.18c-1.22,4.86-4.76,8.72-8.79,11.58a53,53,0,0,1-7.41,4.29c-.92.45-1.85.89-2.77,1.35l.23-.21c2.32-2,4.69-4,7-5.92,2.74-2.29,5.47-4.6,8.2-6.9.29-.26-.13-.67-.43-.43-5.07,4.07-10.16,8.12-15.18,12.25-.53.44-1.06.89-1.58,1.35A21.64,21.64,0,0,1,319.34,173ZM342,147.58c2.13-.63,4.29-1.2,6.44-1.75-3.08,3-5.44,6.65-8.77,9.38a17.26,17.26,0,0,1-7.51,3.51,46.42,46.42,0,0,1-7.73.41l-.85,0c1.28-.62,2.57-1.22,3.89-1.78,3.44-1.47,7-2.69,10.51-3.86.66-.22.39-1.26-.29-1.06a106.89,106.89,0,0,0-17.59,7.28.13.13,0,0,0,0-.06c.16-.27.31-.54.48-.8C326.47,153.29,334.24,149.89,342,147.58ZM316.27,285.41c2.05-1.44,4.07-2.92,6.22-4.21a30.12,30.12,0,0,1,7.66-3.26,29.36,29.36,0,0,1,8.18-1,71.82,71.82,0,0,1-11,8.1,30,30,0,0,1-7,2.92,54.17,54.17,0,0,1-6.44,1.23,65.88,65.88,0,0,0,16.31-9.1c.26-.2,0-.65-.27-.45a63,63,0,0,1-13.24,7.1c-2.09.86-4.2,1.63-6.34,2.35A48.08,48.08,0,0,0,316.27,285.41Zm-14.48,6.22-.71.19.69-.49A.61.61,0,0,0,301.79,291.63Zm4.88-9.12a37.28,37.28,0,0,1,3.78-1.52,65.57,65.57,0,0,1-7.63,8.16,27.3,27.3,0,0,1-7.3,4.33l-1.25.34a.53.53,0,0,0-.35.27l-.65.21a.57.57,0,0,0,0-.29c.14-.51.3-1,.47-1.52A39,39,0,0,1,306.67,282.51Zm44.51-7.41c-7.18-2.73-14.09-6.9-21.93-7.23,11-2.23,21.68,4.24,32.3,6.29a30.48,30.48,0,0,0,9.43.47l.87.23C365.77,279,357.64,277.56,351.18,275.1Zm-7-9.76a42.12,42.12,0,0,1,9.5,1.77,53.72,53.72,0,0,1,8.95,3.89c1.61.83,3.22,1.68,4.88,2.4.39.17.78.33,1.17.47-5.1.06-10.1-1.36-14.92-3-5.58-1.87-11.12-4-17-4.61a27.18,27.18,0,0,0-4.23-.12A42.65,42.65,0,0,1,344.16,265.34Zm29.16-7a105.94,105.94,0,0,1,13.25,4.71,30.41,30.41,0,0,1-10.25,2.89,31.15,31.15,0,0,1-11.4-1.19c-6-1.68-11.89-4.54-18.11-5.43a63.92,63.92,0,0,1,11.4-.48,58.58,58.58,0,0,1,8.66,1.09c2.78.56,5.51,1.33,8.27,2a39.09,39.09,0,0,0,9.38,1.26.39.39,0,0,0,0-.78c-5.84-.06-11.38-2.16-17-3.4a59.9,59.9,0,0,0-17.1-1.25,52.92,52.92,0,0,0-6.78.95,48.72,48.72,0,0,1,6.18-1.59A51,51,0,0,1,373.32,258.34Zm6.14-14a36.11,36.11,0,0,1-9.84,3c-6.72.75-13.53-.62-20.21.68a24.42,24.42,0,0,0-3.28.89l0,0c9.33-4.75,19.8-6,30.17-6.38,3.16-.11,6.33,0,9.48-.26A.27.27,0,0,0,386,242l.25.09a20.12,20.12,0,0,0-2.25.49A43,43,0,0,0,379.46,244.3Zm-22.53-2.23a50.88,50.88,0,0,1,10.41-1.73,64.39,64.39,0,0,1,10.11-.09,36.57,36.57,0,0,1,7,1.27c-2.38-.11-4.78-.05-7.15,0-2.85,0-5.69.14-8.53.37A69,69,0,0,0,352.48,245a45.49,45.49,0,0,0-5.23,2.13A26.52,26.52,0,0,1,356.93,242.07Zm20.89-10.58a24.7,24.7,0,0,1-6.36-.61,21.63,21.63,0,0,1-5.62-2.34c-1.61-.95-3.16-2-4.84-2.88a13,13,0,0,0-3.45-1.24,13.82,13.82,0,0,1,8.3-.06c3.83,1,7.23,3.17,10.77,4.87a27.71,27.71,0,0,0,6.27,2.28h0a1.19,1.19,0,0,0,.08.16A33.11,33.11,0,0,0,377.82,231.49Zm1.26-4.85a20.86,20.86,0,0,1,3.16,3.79c-7.36-2.21-13.46-8.29-21.55-7.83a11.91,11.91,0,0,0-2.86.5,9.37,9.37,0,0,1,.86-.38,18.79,18.79,0,0,1,7.22-1.32A19.74,19.74,0,0,1,379.08,226.64Zm36,20.26a43.9,43.9,0,0,1,12.22,8.73c1.64,1.56,3.19,3.22,4.72,4.89a44,44,0,0,1-15.68-7.21,42.9,42.9,0,0,1-7-6.58l.36.36c2.44,2.3,5.52,3.29,8.51,4.66a12.28,12.28,0,0,1,4.45,3.11c.38.45,1-.19.65-.64-2.09-2.53-5.28-3.64-8.15-5a15.83,15.83,0,0,1-4.1-2.65,21.86,21.86,0,0,1-2-2.11C411.07,245.35,413.16,246,415.12,246.9Zm16-14.7c1.08.41,2.15.86,3.21,1.33-2.86-.69-5.74-1.3-8.64-1.75a74,74,0,0,0-13.63-.77l-1.35.06a35.51,35.51,0,0,1,5.26-1.32C421.14,229,426.35,230.37,431.14,232.2Zm-8.35,4.54a65,65,0,0,1-16.6-4l-1-.41h.11c4.19-.18,8.36-.53,12.57-.42a72.49,72.49,0,0,1,13.58,1.85c2.18.48,4.35,1,6.52,1.52A35.57,35.57,0,0,1,422.79,236.74Z" transform="translate(-62.44 -55.93)"/><path class="cls-1" d="M221.83,421.48a51.81,51.81,0,0,0,5.4-6.85l1.09-1.07a25.65,25.65,0,0,0,2.13-2.51c.61-.8,1.17-1.64,1.71-2.5a25.37,25.37,0,0,0,1.45-2.6,32.14,32.14,0,0,0,1.27-3,35.45,35.45,0,0,0,1.64-5.71,49.35,49.35,0,0,0,.8-6.17,64.72,64.72,0,0,0-.24-12.37q-.36-3.17-.89-6.31c-.34-2.06-.75-4.12-1.19-6.17-1-4.57-2.19-9.08-3.33-13.61a.2.2,0,0,0-.19-.15.21.21,0,0,0-.22.26c.68,2.73,1.31,5.47,1.86,8.22.28,1.43.55,2.86.8,4.28s.5,3,.7,4.49v-.07c.23,1.77.45,3.53.61,5.3s.24,3.59.31,5.39.06,3.57,0,5.35a52.46,52.46,0,0,1-.41,5.32,53.61,53.61,0,0,1-1.2,5.9c-.21.78-.45,1.55-.69,2.32a56.74,56.74,0,0,1-3.55,6.83,72.54,72.54,0,0,1-8.16,10.64,123.86,123.86,0,0,1-10.43,10.06c-3.54,3.09-7.09,6.25-10.9,9a43.15,43.15,0,0,1-12.35,6.38,124.69,124.69,0,0,1-13.77,3.14,104.69,104.69,0,0,0-13.61,3.55c-4.58,1.53-9.07,3.31-13.65,4.79-9.93,3.2-20.46,5.49-30.72,2.42-1-.3-1.39,1.23-.42,1.52,9.09,2.64,18.51,1.19,27.5-1.14,9.48-2.45,18.79-5.7,28.47-7.32,4.88-.82,9.81-1.41,14.63-2.57a39,39,0,0,0,13.19-5.87c4-2.81,7.75-6.08,11.51-9.24A126.49,126.49,0,0,0,221.83,421.48Z" transform="translate(-62.44 -55.93)"/></svg>